<?xml version="1.0" encoding="UTF-8" standalone="no"?>
<!-- Created with Inkscape (http://www.inkscape.org/) -->

<svg
   version="1.1"
   id="svg1"
   width="960"
   height="960"
   viewBox="0 0 960 960"
   xmlns="http://www.w3.org/2000/svg"
   xmlns:svg="http://www.w3.org/2000/svg">
  <defs
     id="defs1" />
  <g
     id="g1">
    <path
       style="fill:#000000;stroke-width:0.584663"
       d="m 463.53962,959.20516 c -5.94895,-0.41816 -17.91993,-1.17827 -26.60218,-1.68913 -8.68224,-0.51094 -21.96872,-1.30908 -29.52549,-1.77363 -7.55677,-0.46454 -16.50212,-0.99065 -19.87855,-1.16903 -26.0661,-1.3773 -66.04544,-4.05327 -74.25224,-4.96999 -27.26255,-3.0451 -50.65518,-11.41402 -71.91358,-25.72753 -23.96507,-16.13602 -43.35351,-35.54535 -58.70317,-58.76642 -6.9471,-10.50965 -8.21369,-12.63306 -13.1442,-22.03572 -14.19996,-27.07977 -23.109,-56.42843 -27.2094,-89.63506 -1.86076,-15.06863 -2.02667,-19.00708 -3.26246,-77.46782 -0.30252,-14.30963 -0.81874,-36.14687 -1.14712,-48.52707 -0.32832,-12.38028 -0.86205,-35.40135 -1.18611,-51.15805 -0.32399,-15.7567 -0.84577,-38.90932 -1.15943,-51.45038 -0.31358,-12.54098 -0.84035,-37.79847 -1.17035,-56.12767 -0.33007,-18.32919 -0.8542,-43.06043 -1.16485,-54.95834 -0.31058,-11.89792 -0.70763,-29.39395 -0.88242,-38.88008 -0.17478,-9.48621 -0.45026,-21.1941 -0.61221,-26.01752 -0.16203,-4.8235 -0.67935,-25.21359 -1.14976,-45.31143 -0.47041,-20.09776 -1.15672,-49.17021 -1.52512,-64.60526 -0.3684,-15.43513 -0.70265,-34.77287 -0.74281,-42.97278 l -0.0725,-14.90888 1.60427,-3.42655 c 2.931,-6.26038 8.43589,-9.88319 16.26009,-10.70096 l 3.41268,-0.35675 0.17775,-12.34407 0.17773,-12.34415 1.92826,-3.21564 c 1.06054,-1.76857 2.94623,-4.79425 4.19042,-6.72361 1.24418,-1.92943 2.90184,-4.5604 3.68368,-5.84664 3.49318,-5.7469 16.83208,-26.757013 23.75621,-37.418464 4.17683,-6.431293 9.00994,-13.929595 10.74025,-16.662905 16.74657,-26.45396 19.32892,-30.24238 22.98887,-33.72561 6.16378,-5.86616 8.9285,-6.34272 39.99803,-6.89452 24.92157,-0.44261 24.32819,-0.37108 24.81988,-2.99203 0.48611,-2.5912 3.55177,-8.4686 6.42381,-12.3156 4.22525,-5.65954 10.58484,-9.3066999 17.1976,-9.8626199 1.81578,-0.15265 24.61238,-0.5419 50.65913,-0.86498 26.04675,-0.3231 63.14363,-0.84346 82.43752,-1.15636 90.0179,-1.45987 193.7951,-2.9625 265.14478,-3.83915004 L 733.36213,1.0613241e-6 739.10761,1.4894111 c 11.44929,2.96806 16.99728,6.77135 20.64551,14.1530499 1.79591,3.63378 2.20623,5.15967 2.4308,9.0391 0.24217,4.1827 0.39897,4.69228 1.51013,4.90773 0.68195,0.13223 4.84984,0.93978 9.26194,1.79457 13.89446,2.69186 17.23049,4.0068 21.35687,8.41807 3.55703,3.80258 4.16994,5.49479 7.43183,20.51845 1.15196,5.30581 2.93197,12.67256 3.95554,16.370561 l 1.86104,6.723624 0.19171,40.070784 0.19178,40.07082 5.42824,0.64542 c 6.10172,0.72544 9.93115,2.34326 13.29033,5.61482 5.00724,4.87662 5.39715,7.77428 4.97361,36.96215 -0.37699,25.97875 -0.77169,59.44737 -1.2206,103.48534 -0.16382,16.07827 -0.4375,39.36251 -0.60804,51.74271 -0.47288,34.31901 -1.3656,119.53921 -1.71793,163.99805 -0.17328,21.8664 -0.4427,45.41373 -0.59874,52.32737 -0.36436,16.14481 -0.76539,45.35137 -1.47313,107.28571 -0.31232,27.33298 -0.71784,51.80119 -0.90119,54.37369 -0.94306,13.2311 -5.12867,39.29758 -7.93307,49.40406 -1.64524,5.92921 -7.74351,24.19406 -9.81672,29.40208 -2.36047,5.9295 -9.92367,21.29545 -13.73,27.89492 -1.76195,3.05485 -3.72144,6.48455 -4.35446,7.62156 -0.63295,1.137 -3.23494,4.96405 -5.78214,8.50466 -19.03313,26.45562 -41.54331,46.67701 -66.8017,60.00932 -14.15627,7.47221 -29.34869,13.1192 -42.70731,15.87418 -4.47841,0.9236 -33.20244,5.13751 -42.06886,6.1717 -11.08797,1.29325 -25.53961,3.17174 -49.69638,6.45957 -13.98807,1.90392 -31.22102,4.13521 -38.29545,4.95856 -7.07442,0.82327 -14.83583,1.76131 -17.24757,2.08457 -13.15491,1.7627 -44.07912,2.1684 -63.14361,0.82855 z m 30.69483,-8.45033 c 12.13307,-1.87037 16.16719,-2.71343 23.80495,-4.97461 24.23482,-7.17504 44.56883,-19.45001 63.89651,-38.57229 14.41785,-14.26455 23.55632,-26.07739 32.56791,-42.0985 1.44698,-2.57257 3.34818,-5.94389 4.22483,-7.49202 2.25159,-3.97589 9.41074,-21.17937 11.81481,-28.39105 3.26985,-9.8088 8.17442,-30.10392 9.48442,-39.24621 3.14408,-21.94306 3.00335,-6.62247 3.00335,-327.00918 V 166.64496 l -3.06948,0.31695 c -1.68822,0.17427 -16.35596,0.45927 -32.59498,0.63325 -16.23902,0.17398 -34.52437,0.4422 -40.6341,0.59595 -6.10973,0.15382 -21.50099,0.4153 -34.20279,0.581 -37.95405,0.4951 -62.65996,0.87281 -76.59088,1.17078 -7.23521,0.15471 -25.6521,0.41956 -40.92643,0.5884 -15.27433,0.16885 -31.06024,0.43136 -35.0798,0.58335 -4.01956,0.15199 -22.8311,0.41457 -41.80342,0.58341 -18.97232,0.16892 -38.96781,0.43209 -44.43441,0.58481 -5.4666,0.15273 -22.0418,0.41772 -36.83379,0.58884 -32.74984,0.37888 -89.43626,1.34594 -102.60657,1.75047 -8.7356,0.26829 -9.92391,0.43267 -12.60127,1.74255 -2.14518,1.0495 -3.34492,2.13162 -4.37331,3.94445 -1.63021,2.87377 -1.59775,0.22286 -0.578,47.22488 0.3174,14.6312 0.72193,33.5743 0.89883,42.09579 0.17691,8.52142 0.57177,25.09663 0.87736,36.83376 0.30567,11.73713 0.6943,27.25991 0.86359,34.49511 0.16943,7.23521 0.43538,17.89074 0.59103,23.67888 0.15573,5.7882 0.54802,23.54732 0.87179,39.46481 0.3237,15.91741 0.85692,40.25401 1.18494,54.08135 0.32794,13.82727 0.85434,39.61094 1.16976,57.297 0.31541,17.68605 0.82599,39.26013 1.13459,47.9424 0.30852,8.68221 0.70755,27.23067 0.88666,41.21873 0.17911,13.98805 0.45334,28.98465 0.60929,33.32579 0.15602,4.34114 0.55234,23.94196 0.8808,43.55744 0.32839,19.61541 0.86239,40.40022 1.18663,46.18842 2.63479,47.03435 13.32712,85.49685 33.48167,120.44061 17.50363,30.34762 43.91657,57.41362 72.30657,74.09443 15.10792,8.8767 33.0673,15.53568 49.11171,18.20953 8.55248,1.4253 33.21864,3.29705 73.95991,5.61218 33.98222,1.93111 72.00098,4.27393 80.09886,4.93598 14.86121,1.21498 28.50032,1.12338 37.41846,-0.25143 z M 174.57571,248.87948 c -7.1051,-1.8047 -11.80547,-5.58052 -14.98142,-12.03445 -2.24848,-4.56927 -2.99504,-8.80774 -2.99949,-17.02898 -0.004,-7.5518 0.70447,-11.25815 3.09169,-16.17208 2.30428,-4.74317 5.43712,-7.79722 10.62028,-10.35308 11.55386,-5.69734 26.57023,-1.32176 32.00175,9.3249 2.33657,4.58005 2.92298,7.56924 3.22809,16.4551 0.34355,10.00587 -0.367,14.08062 -3.37094,19.33099 -2.27027,3.96805 -5.04769,6.3643 -10.22778,8.82438 -5.08115,2.41296 -11.83792,3.05639 -17.36218,1.65322 z m 15.0764,-8.78766 c 3.38966,-2.09681 6.37728,-5.81379 7.41131,-9.22048 0.45845,-1.51046 0.74675,-5.73332 0.74675,-10.93789 0,-7.97501 -0.0919,-8.66821 -1.55097,-11.69324 -3.31287,-6.86863 -7.64426,-9.60902 -15.11194,-9.5611 -6.57264,0.0425 -11.13948,2.61229 -14.33702,8.06845 -2.75943,4.70858 -3.34113,17.36924 -1.13797,24.7678 1.14977,3.86113 4.08532,7.19351 8.06895,9.15951 2.6386,1.30233 3.65622,1.47162 8.03812,1.33729 4.41593,-0.13543 5.35923,-0.36547 7.87277,-1.92034 z m 56.39278,8.69327 c -0.80391,-0.16247 -3.3253,-1.18428 -5.60309,-2.27071 -9.23835,-4.40644 -13.67997,-13.12968 -13.68299,-26.87326 -0.002,-5.8755 0.77208,-10.70222 2.43566,-15.20128 1.61432,-4.36576 6.28507,-9.22648 11.25514,-11.7128 3.31319,-1.65747 3.80602,-1.73442 11.10861,-1.73442 7.59172,0 7.66568,0.0125 11.33233,2.0011 3.92027,2.12554 8.24056,6.44 10.10148,10.08765 2.24899,4.40841 3.00734,9.53442 2.70933,18.31373 -0.21027,6.19479 -0.58054,9.10945 -1.5226,11.98557 -3.15401,9.62947 -10.82409,15.11297 -21.70258,15.51574 -2.7333,0.1012 -5.62738,0.0506 -6.43129,-0.11132 z m 13.14665,-9.00195 c 6.17513,-3.03521 8.75067,-8.97248 8.73737,-20.14202 -0.0101,-8.51043 -1.10389,-12.55066 -4.41646,-16.31396 -5.8448,-6.64013 -17.10174,-7.17679 -23.17358,-1.10498 -4.46987,4.4699 -5.076,6.57719 -5.09435,17.71127 -0.0154,9.3271 0.0368,9.7542 1.57213,12.88044 1.98042,4.03239 4.13758,6.13037 7.82133,7.60668 4.03356,1.6165 10.54848,1.33114 14.55356,-0.63743 z m 52.34981,7.27684 c -8.40457,-2.25848 -14.16793,-8.68419 -16.04894,-17.89338 -1.1913,-5.83247 -1.20437,-16.65186 -0.0256,-21.2421 3.13311,-12.20138 11.01515,-18.39353 23.41326,-18.39353 6.33562,0 11.32244,1.55025 15.12337,4.70133 5.20236,4.31292 6.77202,6.82745 8.28028,13.26459 1.42196,6.06882 0.89359,21.43161 -0.8959,26.04889 -1.71575,4.42702 -4.3495,7.80601 -8.1587,10.46726 -5.26309,3.67696 -14.50935,4.976 -21.6877,3.04694 z m 15.4794,-8.25906 c 5.73546,-2.99323 7.90787,-7.68825 8.32427,-17.99048 0.36746,-9.09157 -0.37681,-13.09135 -3.20938,-17.24759 -3.52791,-5.17643 -9.90118,-7.66084 -16.21922,-6.32267 -4.12896,0.87464 -6.86871,2.40262 -9.20801,5.13561 -2.60823,3.04708 -3.91614,7.19263 -4.34919,13.78513 -0.74747,11.37921 2.55098,19.92767 8.76285,22.71013 3.26804,1.46378 3.52999,1.5043 8.59039,1.32571 3.64496,-0.12854 5.59302,-0.50068 7.30829,-1.39584 z m 51.2926,8.32699 c -6.19543,-1.74248 -10.50191,-4.86812 -13.41089,-9.73347 -2.88066,-4.81807 -3.67891,-8.86043 -3.67891,-18.63032 0,-12.48074 1.45603,-17.16002 7.08061,-22.75512 4.67436,-4.64981 9.75866,-6.56121 17.37823,-6.533 11.49105,0.0425 19.79142,6.07842 22.70233,16.50896 1.47704,5.29259 1.50706,21.5858 0.0484,26.31227 -1.89618,6.14452 -7.11176,11.6711 -13.20503,13.99275 -4.31687,1.64472 -12.58916,2.05445 -16.91481,0.83793 z m 14.48202,-8.39669 c 3.87002,-2.00953 5.22939,-3.46253 7.19362,-7.6892 1.68851,-3.63336 1.76834,-4.15976 1.81737,-11.98557 0.0558,-8.9107 -0.38169,-11.01462 -3.23325,-15.54798 -2.37702,-3.77875 -6.42367,-5.89667 -11.94357,-6.25092 -7.52898,-0.48324 -12.47872,2.19354 -15.53466,8.40108 -1.78042,3.6165 -1.90635,4.29629 -2.15514,11.63167 -0.23022,6.78803 -0.10207,8.32451 0.99571,11.93874 2.42505,7.98388 7.1316,11.25038 15.84395,10.99623 3.27399,-0.0956 5.05158,-0.47415 7.01597,-1.49405 z m 55.16415,8.10121 c -6.93074,-2.27445 -12.27083,-7.29501 -14.92964,-14.03643 -1.05478,-2.67436 -1.31006,-4.74903 -1.5166,-12.32531 -0.34978,-12.83046 1.26179,-18.69898 6.6604,-24.25378 8.42706,-8.67077 24.54716,-9.17621 33.57046,-1.05258 4.5345,4.0823 7.01105,8.95276 8.13547,15.99919 2.66919,16.72728 -3.14142,30.84556 -14.44178,35.08982 -4.94865,1.85863 -12.78768,2.11835 -17.47831,0.57909 z m 13.98045,-7.60368 c 5.05839,-1.89257 8.49708,-6.36804 9.83145,-12.79572 0.95206,-4.58606 0.38565,-15.99473 -0.96129,-19.36214 -2.74268,-6.85691 -7.42855,-10.0617 -14.75552,-10.09153 -7.52151,-0.0308 -11.99078,2.61801 -14.94778,8.85874 -1.80628,3.8121 -1.83073,3.98483 -1.83073,12.92602 0,8.75652 0.0553,9.17314 1.63872,12.34701 1.77944,3.56681 3.12184,5.22502 5.50857,6.80444 3.97552,2.63083 10.51556,3.18435 15.51658,1.31318 z m 60.3583,7.60111 c -6.66751,-0.74171 -11.20517,-3.08123 -14.90455,-7.68458 -4.53932,-5.64861 -6.19342,-12.59119 -5.68759,-23.87227 0.25747,-5.74226 0.6403,-8.18248 1.7716,-11.29266 2.66788,-7.33465 6.61318,-11.57679 12.7919,-13.75428 11.72185,-4.13111 24.15986,-0.61947 29.847,8.42673 3.10562,4.93995 3.66081,7.85702 3.66081,19.23433 0,9.68561 -0.1136,10.83889 -1.42629,14.47804 -1.62974,4.51804 -5.71087,9.54036 -9.58807,11.79905 -4.02856,2.34693 -10.26014,3.35584 -16.46481,2.66564 z m 10.9439,-8.6504 c 3.3624,-1.50298 5.59593,-3.8535 7.33775,-7.7221 1.17114,-2.60123 1.50604,-4.4828 1.75248,-9.84728 0.58407,-12.71401 -1.87099,-19.36653 -8.34087,-22.60152 -7.47375,-3.73683 -16.974,-1.67484 -21.18607,4.59851 -2.64364,3.93727 -3.09343,6.14723 -3.13049,15.38083 -0.0342,8.50141 0.47857,11.05896 3.05138,15.22187 1.38522,2.24125 4.88233,4.77974 8.05565,5.84735 2.84398,0.95687 9.38724,0.49591 12.46017,-0.87766 z m 56.3578,8.59588 c -7.63389,-0.85501 -14.37331,-5.55157 -17.77447,-12.38658 -2.93016,-5.88846 -3.94016,-18.03503 -2.18746,-26.30633 0.80748,-3.81056 3.34925,-9.33289 5.46771,-11.8793 6.76508,-8.13169 21.15692,-10.26346 31.2267,-4.62541 3.23429,1.81093 7.11166,6.00946 8.62945,9.34426 2.63168,5.78241 3.74231,18.48895 2.29855,26.29885 -2.57428,13.92547 -12.87868,21.21015 -27.66048,19.55451 z m 9.64723,-8.11814 c 7.43388,-2.14612 11.04289,-9.16184 11.04289,-21.46664 0,-13.76879 -5.52314,-20.81323 -16.37057,-20.87985 -7.94306,-0.0484 -14.03502,4.18893 -16.23575,11.29383 -1.55626,5.02445 -1.35169,17.3477 0.36097,21.7411 3.24699,8.32963 11.71782,12.04983 21.20246,9.31156 z m -46.54644,708.57874 c 9.96851,-1.29692 22.86033,-3.00393 28.64849,-3.79342 13.83875,-1.88751 30.60386,-4.0757 44.85502,-5.85438 42.74163,-5.33444 55.29109,-7.92078 71.45445,-14.72574 21.64131,-9.11143 35.68147,-18.28925 52.96231,-34.62065 17.85918,-16.87795 31.22364,-34.99069 42.53203,-57.64322 11.75261,-23.54241 18.6435,-47.17329 22.92634,-78.62153 1.76662,-12.97154 2.2592,-27.73853 2.63297,-78.92948 0.35711,-48.90712 1.06631,-117.14721 2.05065,-197.32392 0.31583,-25.72518 0.83075,-70.18879 1.14425,-98.80805 0.31349,-28.61925 0.70984,-60.45422 0.88068,-70.74428 0.17089,-10.29006 0.46895,-42.9143 0.66236,-72.49827 l 0.35167,-53.78895 -1.37039,-2.61522 c -0.98878,-1.88693 -2.10303,-2.98487 -4.00137,-3.94277 -2.84445,-1.43534 -2.14443,-1.4061 -102.90074,-4.3012 -13.02338,-0.37419 -32.75576,-0.99344 -43.84974,-1.37613 -11.09399,-0.38254 -20.29589,-0.5991 -20.44867,-0.48111 -0.15282,0.11799 -0.33676,133.52433 -0.40879,296.45844 -0.072,162.93411 -0.28087,299.79574 -0.46416,304.13688 -0.94401,22.35748 -7.45043,52.36305 -16.0931,74.21656 -7.65973,19.36818 -16.44084,34.8826 -29.96831,52.94775 -5.10839,6.82196 -16.33199,18.66257 -23.531,24.82453 -5.88669,5.0388 -17.03013,13.43205 -21.92599,16.51468 -5.1472,3.24085 -18.67643,10.16093 -22.6557,11.58814 -6.51438,2.3366 -6.0708,2.31989 16.51674,-0.61866 z M 234.05929,165.54862 c 64.08239,-1.15085 72.24918,-1.34066 72.44132,-1.68348 0.10842,-0.1934 0.0643,-4.5061 -0.0981,-9.58367 l -0.29525,-9.23206 -5.62149,0.2883 c -3.09181,0.15851 -20.48655,0.43348 -38.65496,0.61097 -49.03728,0.47906 -77.07762,0.87032 -91.71622,1.27962 l -13.07902,0.36569 0.3464,4.15939 c 0.19052,2.28771 0.35369,6.59346 0.36259,9.56843 l 0.0162,5.40889 22.6557,-0.31278 c 12.46062,-0.17207 36.5999,-0.56326 53.64283,-0.8693 z m 125.41027,-2.03532 c 14.6312,-0.16848 32.65345,-0.43846 40.04943,-0.59998 7.39599,-0.16151 32.785,-0.5489 56.42001,-0.86087 75.75632,-0.99989 113.49465,-1.70473 113.96758,-2.12861 0.1378,-0.12356 0.34705,-4.1857 0.46504,-9.02708 l 0.21451,-8.80246 -8.65033,0.31666 c -4.75769,0.17412 -26.27798,0.45692 -47.82282,0.62848 -21.54483,0.17156 -46.14453,0.43956 -54.666,0.59566 -8.52146,0.15617 -34.83131,0.4504 -58.46633,0.65391 -23.63501,0.20359 -43.76204,0.44242 -44.72674,0.5308 -0.96469,0.0885 -10.76511,0.18687 -21.7787,0.21875 l -20.02472,0.0579 v 9.69236 9.69235 l 9.20845,-0.3308 c 5.06464,-0.18197 21.17942,-0.46865 35.81062,-0.63714 z M 800.30565,125.59482 V 87.383846 l -2.85953,-11.63158 c -1.57269,-6.397375 -3.69653,-15.233745 -4.71952,-19.636385 -1.6864,-7.25744 -2.07356,-8.24737 -4.1469,-10.60279 -2.69833,-3.06551 -5.19595,-4.17223 -12.10679,-5.36475 -4.78641,-0.82593 -33.86305,-6.80909 -48.49788,-9.97952 -9.686,-2.09832 -8.92126,-2.3557 -12.71724,4.2802 -1.79346,3.13526 -5.25928,8.85765 -7.70189,12.71643 -2.44255,3.85877 -8.26001,13.33032 -12.92778,21.04788 -4.66772,7.717551 -9.65343,15.873603 -11.07937,18.124551 -5.12317,8.087298 -14.63266,23.475408 -15.43517,24.976828 -0.85606,1.60174 -7.72744,12.75963 -13.44808,21.83737 l -3.34193,5.30299 -0.19966,10.19054 -0.19972,10.19054 6.43129,0.4008 c 3.53721,0.22051 16.56059,0.68806 28.94084,1.03917 12.38024,0.35103 35.26981,1.01821 50.8657,1.48261 15.5959,0.46448 34.53899,1.01924 42.09576,1.23279 7.55677,0.21355 13.8492,0.48419 13.98321,0.6013 0.13401,0.1171 1.77837,0.21296 3.65414,0.21296 h 3.41052 z m -185.63058,33.99624 c 11.25476,-0.0696 22.23912,-0.22425 24.40968,-0.34422 l 3.94648,-0.21809 v -8.7681 -8.76809 l -31.71798,0.38445 c -17.44489,0.21142 -32.04686,0.48785 -32.44882,0.61427 -0.54245,0.17068 -0.73082,2.51643 -0.73082,9.10029 v 8.87032 l 8.03912,-0.37235 c 4.42151,-0.20483 17.24756,-0.42916 28.50234,-0.49848 z m -351.3915,-21.54118 c 34.20567,-0.43919 45.17736,-0.7505 45.70661,-1.29676 0.38303,-0.39537 2.25916,-3.48137 4.16918,-6.85779 1.91003,-3.37643 6.74763,-11.53251 10.75022,-18.12459 9.88644,-16.282521 13.39063,-22.099341 19.82961,-32.916543 3.02432,-5.080726 6.41961,-10.756946 7.54509,-12.613846 1.12547,-1.8569 3.59246,-5.98755 5.48219,-9.17922 1.88973,-3.19168 5.31001,-8.81294 7.60062,-12.49171 2.29062,-3.67877 4.39775,-7.07366 4.68252,-7.54419 0.45136,-0.7458 -1.23579,-0.80307 -13.15493,-0.44657 -7.51997,0.22492 -26.03831,0.77852 -41.15186,1.23023 -15.11355,0.4517 -38.92396,1.10545 -52.91203,1.45278 -25.97014,0.64484 -34.11273,1.22647 -36.78562,2.62759 -1.98979,1.04305 -4.78646,4.06226 -6.78278,7.32251 -0.88606,1.44704 -2.97308,4.73577 -4.63782,7.30829 -1.66474,2.57252 -4.6162,7.17674 -6.5588,10.23161 -1.9426,3.05487 -5.84912,9.106124 -8.68117,13.447248 -2.83205,4.341125 -7.30259,11.313234 -9.93456,15.49358 -2.63196,4.180338 -7.25926,11.429411 -10.28289,16.109001 -3.02362,4.67959 -5.7606,8.95412 -6.08216,9.49896 -0.60594,1.02673 -5.95533,9.45552 -9.49761,14.96495 l -2.02818,3.1546 28.85709,-0.39603 c 15.87141,-0.21788 49.11168,-0.65619 73.86728,-0.9741 z M 235.52095,92.746494 c -13.20982,-3.705772 -15.43781,-17.909113 -4.97758,-31.731753 8.04931,-10.63672 23.23328,-18.46161 33.8927,-17.46622 8.40661,0.78503 13.95007,4.72751 15.85345,11.27492 2.63506,9.06427 -3.00036,21.298449 -13.48909,29.284013 -4.6409,3.533356 -10.6244,6.829337 -14.7453,8.122379 -4.25109,1.333905 -12.68188,1.597355 -16.53418,0.516661 z m 19.59525,-8.706689 c 7.38541,-3.592811 13.54438,-9.480314 16.97601,-16.227884 1.25706,-2.47173 2.13369,-4.64595 1.94805,-4.83158 -0.18563,-0.18564 -7.02097,4.15432 -15.18961,9.64438 -20.80842,13.985031 -20.33923,13.657326 -20.37452,14.231354 -0.0175,0.285721 2.43537,0.389088 5.46835,0.230472 5.08295,-0.265905 5.93049,-0.497021 11.17172,-3.046742 z m -16.08727,-5.263838 c 1.03622,-0.879448 14.30436,-9.903336 26.45601,-17.993206 4.74308,-3.15767 8.62378,-6.00052 8.62378,-6.31745 0,-1.25757 -2.04825,-0.42815 -6.61575,2.67896 -2.63185,1.79035 -8.8632,6.00829 -13.84746,9.37321 -19.73659,13.324266 -22.80187,15.516285 -22.80187,16.305821 0,0.571272 1.10862,0.194628 3.65414,-1.24148 2.00979,-1.133831 4.0488,-2.396475 4.53115,-2.805855 z m -1.81654,-8.398226 c 2.7677,-1.86446 9.57436,-6.53446 15.12591,-10.37778 5.55155,-3.84334 11.01013,-7.51408 12.13018,-8.1572 1.12006,-0.64314 2.03718,-1.36666 2.03804,-1.60783 5.8e-4,-0.24117 -1.84859,-0.4385 -4.10992,-0.4385 -11.50332,0 -25.80045,10.15797 -30.65309,21.77871 -0.6353,1.52135 -0.70859,2.19248 -0.23944,2.19248 0.37187,0 2.9406,-1.52544 5.70832,-3.38988 z m 66.15599,22.629748 c -16.59219,-3.25248 -18.10257,-21.785368 -2.99951,-36.804948 5.28104,-5.25186 9.49634,-8.11466 15.47092,-10.50699 9.83542,-3.9383 18.18576,-3.83878 24.4264,0.29108 11.63389,7.69893 6.98467,27.74147 -9.07807,39.135099 -9.58333,6.797641 -19.3082,9.554272 -27.81974,7.885759 z m 14.15199,-7.542276 c 3.51017,-1.313327 10.65446,-5.817398 13.60995,-8.580398 3.33216,-3.115024 6.14591,-7.066994 7.62718,-10.712394 0.81466,-2.00489 1.35591,-3.77054 1.20279,-3.92366 -0.15313,-0.15312 -1.68012,0.75229 -3.39332,2.01203 -1.71321,1.25974 -7.85069,5.47921 -13.63886,9.37657 -16.7924,11.306977 -18.94589,12.852535 -18.52344,13.2946 0.75078,0.785614 9.80077,-0.226441 13.1157,-1.466748 z M 301.16018,80.88859 c 7.07378,-4.512257 39.01549,-26.608309 39.01549,-26.989449 0,-0.83169 -0.77278,-1.11985 -1.68868,-0.62968 -1.00486,0.53779 -26.73307,18.09152 -33.68344,22.981402 -2.25096,1.583621 -4.94772,3.408882 -5.9928,4.056107 -1.04509,0.647217 -1.90016,1.54544 -1.90016,1.996035 0,1.158983 0.45029,1.009073 4.24959,-1.414415 z m 8.65432,-15.502399 c 19.06567,-12.912 22.67944,-15.47598 22.31958,-15.83585 -0.79627,-0.79627 -7.81397,-0.25362 -11.3019,0.87392 -8.39593,2.71416 -17.73001,10.22784 -21.37266,17.2044 -2.09171,4.00617 -2.9254,6.37827 -2.13047,6.06197 0.29764,-0.1184 5.91609,-3.85543 12.48545,-8.30444 z m 85.90418,71.232159 c 15.27433,-0.16313 37.9008,-0.42571 50.28104,-0.58342 12.38025,-0.15778 39.34785,-0.45385 59.92799,-0.65802 20.58013,-0.20409 38.07618,-0.44666 38.88009,-0.539 0.80391,-0.0923 7.55455,-0.18973 15.00147,-0.21663 l 13.53975,-0.0484 2.15793,-3.94643 c 2.14788,-3.92804 14.68832,-25.17089 20.45006,-34.641331 1.6629,-2.733304 4.54722,-7.600624 6.40961,-10.816271 1.86232,-3.215647 3.97612,-6.767478 4.6973,-7.892955 0.72118,-1.125477 4.01593,-6.650542 7.32173,-12.277922 3.30575,-5.62738 8.42728,-14.30963 11.38112,-19.29389 2.9539,-4.98425 6.3495,-10.83819 7.54589,-13.00875 l 2.17519,-3.94649 -3.68274,0.0152 c -2.02551,0.008 -12.23349,0.26345 -22.68434,0.56687 -10.45087,0.30342 -33.20889,0.94743 -50.57338,1.43113 -63.99343,1.78258 -76.04365,2.12368 -105.53171,2.98722 -16.56059,0.48496 -38.00311,1.13285 -47.65005,1.43975 -9.64695,0.3069 -19.54764,0.56201 -22.00155,0.56689 l -4.46165,0.009 -4.95689,8.33145 c -4.52144,7.59956 -8.856,14.7989 -16.10457,26.74835 -2.68833,4.43174 -19.51999,32.411289 -26.4667,43.995929 -2.07286,3.45682 -4.62991,7.66639 -5.68231,9.35461 -1.0524,1.68821 -2.16602,3.59564 -2.47471,4.23878 -0.30869,0.64314 -1.21671,2.22176 -2.01781,3.50797 -0.80111,1.28628 -1.88062,3.09274 -2.39892,4.01444 l -0.94235,1.67579 25.0445,-0.35844 c 13.77448,-0.19713 37.54169,-0.49195 52.81601,-0.65508 z M 371.74749,92.811453 c -3.65856,-1.015324 -5.83429,-2.249665 -7.97366,-4.523543 -3.00104,-3.18969 -3.92518,-5.575466 -3.92594,-10.135314 -0.001,-8.264825 3.44134,-15.208015 11.60727,-23.409305 4.40875,-4.42781 6.16259,-5.73208 10.81627,-8.04356 10.42552,-5.17836 18.54683,-5.88669 25.91334,-2.26019 6.54544,3.22232 8.88296,7.51779 8.43097,15.49291 -0.25824,4.55668 -0.57535,5.73658 -2.68702,9.99812 -7.85859,15.859306 -28.03867,26.80584 -42.18123,22.880882 z m 16.5776,-7.599158 c 8.55999,-3.862696 15.93459,-10.804874 19.6588,-18.506044 1.28687,-2.66111 2.24453,-4.93362 2.12811,-5.05003 -0.33439,-0.3344 -35.70791,24.321161 -35.9563,25.061757 -0.16064,0.478949 1.30722,0.577004 5.26197,0.351552 4.20345,-0.239713 6.28432,-0.673585 8.90742,-1.857235 z m -15.54278,-5.47204 c 2.80728,-1.860108 8.65597,-5.886854 12.99709,-8.948334 4.34114,-3.06146 11.51056,-8.0194 15.93208,-11.01764 4.42152,-2.99823 8.03912,-5.79653 8.03912,-6.21843 0,-1.55136 -1.22242,-1.44364 -3.36079,0.29615 -1.20643,0.98155 -6.13998,4.50158 -10.96346,7.82228 -4.82347,3.3207 -10.34854,7.15819 -12.27792,8.52777 -1.92939,1.36958 -6.46784,4.48285 -10.08545,6.91838 -5.79215,3.899536 -7.88717,6.001804 -5.98113,6.001804 0.32798,0 2.89318,-1.521879 5.70046,-3.38198 z m 4.33399,-12.864564 c 19.81048,-13.48502 25.02968,-17.30464 24.28866,-17.7754 -1.00651,-0.63944 -5.49063,-0.55704 -8.59333,0.15791 -8.92601,2.05679 -20.04243,10.94414 -24.04104,19.2203 -1.45988,3.02162 -2.32485,5.28912 -2.0176,5.28912 0.13119,0 4.79468,-3.10134 10.36331,-6.89193 z m 58.26353,25.649397 c -8.27398,-3.235705 -11.6338,-10.125787 -9.62816,-19.744897 2.6666,-12.78909 13.67961,-24.28976 28.85945,-30.13734 4.18932,-1.61381 14.641,-1.89208 17.46196,-0.46492 6.14096,3.10681 8.98709,6.49849 10.20031,12.15555 2.99376,13.95942 -12.90309,33.743312 -30.8505,38.393952 -4.84657,1.255857 -12.56311,1.158514 -16.04306,-0.202345 z m 19.09537,-7.84642 c 8.742,-4.151574 15.25751,-10.410747 19.09933,-18.347957 1.30575,-2.69767 2.25875,-5.02018 2.11778,-5.16114 -0.32841,-0.32841 -12.14741,7.82153 -30.71575,21.180446 -2.97447,2.139981 -5.40813,4.146489 -5.40813,4.458987 0,0.347646 2.03386,0.45212 5.24165,0.269181 4.44488,-0.253395 5.91405,-0.61816 9.66512,-2.399517 z m -16.66076,-4.973904 c 2.09017,-1.445173 8.66763,-6.087923 14.61658,-10.317153 5.94895,-4.22926 13.51303,-9.59006 16.80907,-11.91288 3.29604,-2.32281 5.9928,-4.60602 5.9928,-5.0738 0,-0.46779 -0.22593,-0.85051 -0.50206,-0.85051 -0.46209,0 -6.80569,4.33352 -19.37649,13.2367 -2.73331,1.93585 -8.38992,5.93879 -12.57026,8.8955 -10.47294,7.407266 -11.09898,7.924521 -10.58938,8.749072 0.50085,0.810399 0.51001,0.805958 5.61974,-2.726929 z m -2.45053,-8.187973 c 2.169,-1.67448 19.85792,-14.12018 28.33632,-19.93705 2.50007,-1.71526 4.46045,-3.20378 4.3564,-3.30783 -0.60097,-0.60096 -5.29549,-0.70082 -8.25241,-0.17553 -8.18854,1.45467 -17.76932,8.22918 -23.65575,16.72682 -1.86518,2.69258 -4.27471,8.35976 -3.55434,8.35976 0.33637,0 1.58276,-0.74978 2.76978,-1.66617 z m 68.15704,21.303955 c -6.27967,-1.523983 -11.13318,-5.810847 -12.57178,-11.104095 -1.00446,-3.695893 -0.30551,-10.60451 1.54719,-15.29277 4.2381,-10.72457 14.73407,-20.62491 26.05708,-24.57836 6.23269,-2.17615 13.71935,-2.53753 18.1155,-0.87443 8.36916,3.16617 12.64989,10.77084 11.09357,19.70773 -2.44143,14.01994 -16.19008,27.93077 -31.46663,31.837905 -4.99315,1.277022 -8.4288,1.358756 -12.77493,0.30402 z m 15.7853,-8.141316 c 4.46052,-2.024983 10.78791,-6.736845 14.14715,-10.535109 2.22231,-2.51276 7.84642,-12.56112 7.84642,-14.01886 0,-0.56446 -3.38503,1.78512 -22.18136,15.39615 -5.55085,4.01956 -10.96529,7.890442 -12.03208,8.601922 -3.5975,2.39934 -3.25532,2.670976 3.00166,2.383086 4.63685,-0.213345 6.45866,-0.574431 9.21821,-1.827189 z m -16.84446,-4.935496 c 2.22783,-1.536492 6.55002,-4.651578 9.60489,-6.922463 5.9163,-4.39797 18.95149,-13.62231 24.99433,-17.68721 3.47694,-2.33887 4.37679,-3.65289 3.05913,-4.46724 -0.32729,-0.20226 -1.57701,0.40882 -2.77715,1.35796 -1.82104,1.44016 -15.55982,11.34325 -20.61194,14.85737 -14.45273,10.052862 -21.19594,15.655223 -18.84327,15.655223 0.28788,0 2.34619,-1.25714 4.57401,-2.79364 z m 9.33767,-16.984253 c 7.3822,-5.25047 15.33169,-10.95367 17.66567,-12.67377 l 4.24348,-3.12748 -3.13227,-0.39135 c -8.21955,-1.02697 -20.85159,5.70244 -27.77957,14.79888 -3.03649,3.98691 -6.46228,11.79876 -4.88307,11.13487 0.25499,-0.10717 6.50358,-4.49069 13.88576,-9.74115 z m 56.82431,29.665718 c -7.74177,-1.823971 -12.67158,-7.93587 -12.69123,-15.734457 -0.0363,-14.435921 12.46706,-30.282301 28.21749,-35.761611 4.28704,-1.4914 13.52624,-2.10753 17.11397,-1.14128 4.16327,1.12128 8.4934,4.64263 10.47558,8.51903 1.57275,3.07554 1.76335,4.00788 1.7402,8.51199 -0.0246,4.72498 -0.19043,5.4016 -2.52265,10.27252 -4.83557,10.099296 -11.78301,17.389056 -20.83792,21.864591 -7.45481,3.684666 -15.24452,4.941864 -21.49544,3.469217 z m 11.57949,-6.70106 c 8.26567,-2.148694 17.34409,-8.937278 22.1443,-16.558838 1.90729,-3.02833 4.64672,-9.41251 4.22138,-9.83784 -0.15189,-0.1519 -2.20506,1.15528 -4.56259,2.90483 -7.48691,5.55603 -20.59418,15.194129 -26.39667,19.410077 -3.64708,2.649812 -5.36177,4.231095 -4.90387,4.522202 1.16214,0.738603 5.78688,0.524202 9.49745,-0.440431 z M 568.7576,78.645587 c 2.58426,-1.819003 4.69871,-3.529143 4.69871,-3.800306 0,-0.27111 0.25338,-0.49299 0.56308,-0.49299 0.52105,0 8.27924,-5.48572 23.4081,-16.55159 9.29288,-6.79717 9.15712,-6.67664 8.38817,-7.4483 -0.77702,-0.7797 -1.48762,-0.31369 -19.20444,12.59462 -9.15348,6.66915 -18.3058,13.278471 -23.6049,17.046219 -0.29005,0.206207 0.39295,1.959672 0.76328,1.959672 0.15909,0 2.40367,-1.488264 4.988,-3.307325 z m 4.17151,-13.520576 c 4.95263,-3.46718 12.64943,-8.99225 17.10397,-12.27793 4.45455,-3.28568 8.33526,-5.97396 8.62379,-5.97396 0.28853,0 0.52462,-0.2631 0.52462,-0.58467 0,-0.33324 -1.73347,-0.58466 -4.03103,-0.58466 -4.68373,0 -10.05936,1.51649 -14.53601,4.10067 -3.89123,2.24624 -10.48617,8.44318 -13.23877,12.43984 -2.22938,3.23693 -4.784,9.18467 -3.94495,9.18467 0.27146,0 4.5457,-2.83678 9.49838,-6.30396 z m 71.96567,68.350689 c 0.22101,-0.20058 2.4784,-3.78506 5.0163,-7.96537 6.4265,-10.58527 11.78009,-19.25512 14.44113,-23.38653 1.2427,-1.9294 5.19818,-8.375305 8.79,-14.324256 3.59177,-5.948952 9.24569,-15.157393 12.5643,-20.463213 16.26305,-26.00161 24.66682,-40.20737 24.02154,-40.60617 -0.25895,-0.16006 -12.54337,0.0935 -27.29869,0.56352 -14.75533,0.46998 -29.19575,0.85831 -32.08983,0.86294 l -5.26197,0.008 -2.59363,4.8229 c -1.42652,2.65259 -5.08266,8.90092 -8.12472,13.88517 -8.02298,13.14519 -12.37586,20.43979 -12.37586,20.73966 0,0.14452 -1.48218,2.70662 -3.29382,5.69361 -1.81163,2.986984 -4.33826,7.246726 -5.61475,9.46611 -1.27649,2.219377 -4.22729,7.086704 -6.55723,10.816271 -2.32994,3.729567 -4.60487,7.486378 -5.05535,8.348408 -1.00533,1.9239 -7.56677,13.14873 -10.02026,17.14186 -3.71115,6.0401 -8.63103,14.62729 -8.63103,15.06465 0,0.53233 61.49038,-0.12928 62.08387,-0.66799 z m -7.59132,-41.046497 c -5.84938,-1.011001 -10.38952,-4.267987 -12.8043,-9.185411 -4.34428,-8.846601 -0.12752,-21.749071 10.63912,-32.553821 5.11247,-5.13056 9.29275,-7.87365 15.35238,-10.07431 7.35681,-2.67175 16.12665,-2.75652 21.1295,-0.20424 3.56878,1.82064 6.96345,5.65206 7.94937,8.97209 2.89011,9.73191 -0.89991,20.85608 -10.28738,30.194845 -9.56387,9.51423 -22.11109,14.55642 -31.97869,12.850847 z m 11.35627,-7.338055 c 6.58167,-1.845898 15.73235,-8.996154 20.29348,-15.857047 2.37163,-3.56749 5.39089,-9.95223 4.92609,-10.41706 -0.19224,-0.19226 -6.83344,4.4861 -19.5066,13.74138 -4.21302,3.076795 -9.80386,7.145053 -12.42409,9.040594 -2.62017,1.895592 -4.76401,3.652216 -4.76401,3.903617 0,1.275798 6.25929,1.051343 11.47513,-0.411484 z m -0.0742,-16.154877 c 1.60782,-1.18478 7.396,-5.32303 12.8626,-9.19616 12.85803,-9.10995 12.07002,-8.4587 11.62802,-9.61066 -0.20791,-0.54169 -0.6857,-0.86681 -1.06175,-0.72249 -0.69827,0.26795 -16.36286,11.59596 -29.3884,21.25247 -3.98348,2.9532 -8.41552,6.110379 -9.849,7.015967 -2.34894,1.483992 -3.19524,2.911092 -2.27306,3.833228 0.28748,0.28748 6.35535,-3.931568 18.08159,-12.572355 z m -6.59068,-5.5823 c 6.19738,-4.44126 12.84658,-9.26787 14.77597,-10.72578 1.92939,-1.45792 4.87533,-3.58244 6.54647,-4.72114 1.67121,-1.13869 2.87707,-2.23181 2.67975,-2.42914 -0.19738,-0.19733 -2.11549,-0.35879 -4.26249,-0.35879 -10.84176,0 -23.53258,8.71664 -29.25322,20.09243 -2.10999,4.19582 -2.77124,6.21742 -2.03357,6.21742 0.15347,0 5.34967,-3.63375 11.54709,-8.075 z m -320.23607,-33.82011 5.26197,-0.34616 3.6641,-7.38169 c 2.01525,-4.05994 3.65962,-7.57085 3.65414,-7.80204 -0.005,-0.23117 -6.78473,-0.27911 -15.06503,-0.10652 -17.66749,0.36825 -18.62379,0.58407 -22.79062,5.14323 -2.61226,2.85823 -6.58871,9.3664 -6.58871,10.7836 0,0.6316 20.71945,0.44275 31.86415,-0.29042 z m 36.24912,-1.065 c 24.03915,-0.46416 37.95421,-0.96925 38.37099,-1.39279 0.20233,-0.20561 0.70031,-1.42623 1.10663,-2.71249 0.40633,-1.28626 1.90433,-4.40234 3.3289,-6.92462 1.42457,-2.52228 2.49238,-4.68371 2.37291,-4.80318 -0.2298,-0.22979 -59.08797,0.83032 -59.19081,1.06611 -0.0331,0.0758 -1.39791,2.37409 -3.03303,5.10739 -3.0687,5.12968 -5.46512,9.62441 -5.46512,10.25039 0,0.19673 1.38126,0.2154 3.06948,0.0415 1.68822,-0.1739 10.43624,-0.45843 19.44005,-0.63229 z m 396.10936,-3.69815 c 0,-8.11851 -7.91056,-14.8700299 -18.45127,-15.7478499 -3.43087,-0.28572 -3.59276,-0.2351 -5.14375,1.6081299 -2.27774,2.70692 -3.70993,5.74051 -4.17532,8.84366 l -0.40249,2.68425 4.29331,0.67596 c 2.36134,0.37178 8.50287,1.5743 13.64791,2.67229 5.14504,1.09797 9.55193,2.01336 9.79311,2.0342 0.24117,0.0208 0.4385,-1.22595 0.4385,-2.77064 z m -311.98519,1.24745 c 9.96179,-0.35926 10.47167,-0.43499 10.77532,-1.6005 0.41322,-1.5861 4.68313,-9.71845 5.73167,-10.91639 0.44436,-0.50767 0.80792,-1.14165 0.80792,-1.40887 0,-0.26721 -8.22183,-0.31395 -18.27072,-0.10386 -10.04891,0.2101 -20.51232,0.38367 -23.25203,0.38572 l -4.98129,0.004 -2.41117,3.94648 c -2.50552,4.10089 -5.45847,9.75235 -5.45847,10.4466 0,0.37636 13.15873,0.10902 37.05877,-0.7529 z m 49.17906,-1.3673 c 11.57633,-0.32035 22.58535,-0.58181 24.46446,-0.58103 3.05492,10e-4 3.45185,-0.13781 3.75044,-1.31408 0.18364,-0.72352 1.58028,-3.75902 3.10368,-6.74557 l 2.76984,-5.43007 -18.50587,0.32953 c -10.17822,0.18124 -23.02163,0.48155 -28.54088,0.66735 l -10.03501,0.33782 -3.26359,5.93205 c -1.79498,3.26263 -3.26471,6.35297 -3.26608,6.86741 -0.002,0.79066 0.65322,0.90315 4.23632,0.7272 2.33135,-0.11449 13.71036,-0.47026 25.28669,-0.79061 z m 84.04766,-2.13416 14.4727,-0.38391 0.64027,-2.37783 c 0.3522,-1.30781 1.46744,-3.96306 2.47832,-5.90057 1.01094,-1.9375 1.90805,-3.66135 1.99365,-3.83077 0.0856,-0.1694199 -1.22802,-0.2554699 -2.91911,-0.1912199 -1.69108,0.0643 -15.28245,0.2722599 -30.203,0.4622499 -24.82322,0.31607 -27.19427,0.43167 -27.90528,1.36054 -0.97925,1.27934 -6.06377,10.98851 -6.06377,11.57916 0,0.4086 11.72595,0.23146 47.50622,-0.71765 z m 59.48716,-1.6966 c 27.77635,-0.45636 25.1863,-0.15112 26.04803,-3.06966 0.39061,-1.32303 1.53246,-3.86236 2.53738,-5.64297 l 1.82707,-3.2374699 h -8.67926 c -4.77355,0 -18.5443,0.17348 -30.60151,0.38551 l -21.9223,0.3855 -2.67449,4.7302999 c -1.47101,2.60167 -2.86163,5.36384 -3.09035,6.13819 l -0.41582,1.40788 7.81555,-0.37334 c 4.2985,-0.20533 17.41858,-0.53111 29.1557,-0.72394 z m 63.72829,-1.75986 c 6.59208,-0.18966 13.6326,-0.1038 15.64559,0.1908 l 3.66,0.53563 0.81742,-2.75241 c 0.9382,-3.15926 2.42301,-6.24979 3.70594,-7.7135699 0.79619,-0.90841 0.78327,-1.05042 -0.12745,-1.39992 -0.55748,-0.21392 -4.34248,-0.22009 -8.41109,-0.0137 -4.06855,0.20638 -14.53917,0.39162 -23.26796,0.41166 l -15.87051,0.0364 -2.03463,3.3269099 c -2.60286,4.25619 -3.93514,6.8857 -3.93514,7.76708 0,0.5265 2.18998,0.60681 8.91612,0.32694 4.90386,-0.20404 14.30964,-0.52617 20.90171,-0.71584 z"
       id="path1" />
  </g>
</svg>
