<?xml version="1.0" encoding="UTF-8" standalone="no"?>
<!-- Created with Inkscape (http://www.inkscape.org/) -->

<svg
   version="1.1"
   id="svg1"
   width="960"
   height="960"
   viewBox="0 0 960 960"
   xmlns="http://www.w3.org/2000/svg"
   xmlns:svg="http://www.w3.org/2000/svg">
  <defs
     id="defs1" />
  <g
     id="g1">
    <path
       style="fill:#000000;stroke-width:1.25072"
       d="m 377.463,959.57964 c -76.83233,-4.6971 -138.67813,-30.3662 -163.27915,-67.769 -3.46116,-5.2622 -7.40409,-13.2261 -8.76206,-17.6974 -2.43597,-8.02078 -2.46461,-12.71929 -2.13887,-350.82654 l 0.33019,-342.6969 2.89225,-5.81411 c 13.44733,-27.03233 57.46553,-48.55711 120.92889,-59.13391 l 16.25935,-2.70979 0.62536,-19.326618 c 0.58783,-18.16703 0.84468,-19.77692 4.28068,-26.83096 7.65291,-15.7113 29.3151,-31.70504 58.52045,-43.20712 80.42055,-31.6724103 209.82876,-31.3845703 289.03243,0.64289 31.6882,12.8137 53.25843,29.98691 59.00474,46.97682 1.70592,5.04378 1.88033,46.088678 1.59445,375.215568 -0.29445,339.00561 -0.4905,369.99367 -2.37185,374.89219 -3.56281,9.27668 -10.18565,19.16015 -18.59776,27.75401 -30.44235,31.10007 -87.61859,52.43257 -154.45197,57.62607 -10.31843,0.8018 -19.67388,2.1051 -20.7899,2.8962 -1.11601,0.7911 -5.05578,3.7426 -8.75503,6.5588 -25.28361,19.2481 -63.83489,33.788 -105.53268,39.8024 -24.19297,3.4896 -49.458,4.8292 -68.78952,3.6474 z m 67.52596,-15.9738 c 17.41316,-2.8523 39.67044,-8.5859 54.09606,-13.9354 11.91845,-4.4199 33.52534,-15.0849 39.13733,-19.318 2.7247,-2.0553 2.45316,-2.1459 -8.93439,-2.9814 -36.01754,-2.6425 -64.83935,-7.9146 -90.83356,-16.6153 l -13.1583,-4.4043 -8.28257,3.2557 c -11.54591,4.5386 -17.8031,5.7025 -30.84541,5.7378 -33.52963,0.091 -62.11054,-20.4164 -72.29796,-51.87429 -6.94156,-21.43502 -4.17861,-44.33782 7.59842,-62.98521 2.32831,-3.68658 4.00642,-6.92974 3.72914,-7.20703 -0.27728,-0.27728 -5.51573,0.93588 -11.641,2.69591 -47.55576,13.66474 -80.0918,34.77358 -92.59648,60.07507 -17.00079,34.39876 8.64163,69.66245 67.70174,93.10415 17.19368,6.8243 46.84761,13.6019 73.16704,16.7227 11.2202,1.3305 71.16901,-0.3062 83.15994,-2.2704 z m -62.43375,-7.6713 c -1.51737,-1.5174 -1.96542,-4.7392 -1.96542,-14.1332 0,-13.1465 0.83395,-15.1694 6.2536,-15.1694 5.41965,0 6.25359,2.0229 6.25359,15.1694 0,12.8574 -1.25907,16.0986 -6.25359,16.0986 -1.27752,0 -3.20721,-0.8845 -4.28818,-1.9654 z m -63.56331,-18.1463 c -3.79548,-2.2107 -2.43806,-7.5257 4.44641,-17.4099 6.68156,-9.5929 10.29825,-11.8286 14.07053,-8.6979 3.01013,2.4982 2.05049,7.7389 -2.74085,14.9682 -8.20151,12.3746 -10.66688,14.1154 -15.77609,11.1396 z m -41.98183,-53.16017 c -3.06503,-2.14684 -3.50065,-5.27158 -1.16796,-8.37805 0.85987,-1.14509 6.79019,-3.88977 13.1785,-6.09927 l 11.6151,-4.01727 2.70643,2.70642 c 2.21336,2.21337 2.4898,3.31102 1.51743,6.02511 -0.93082,2.59813 -3.11977,4.0586 -10.08158,6.72643 -12.77876,4.89693 -14.65433,5.21747 -17.76792,3.03663 z m 325.58227,26.99877 c 31.54208,-4.6887 57.1941,-11.8805 81.29671,-22.79234 25.65133,-11.61302 47.46473,-29.8826 55.6703,-46.62606 3.85654,-7.86927 4.29434,-9.83973 4.32741,-19.47642 0.0348,-10.12863 -0.25671,-11.31388 -5.27165,-21.43826 -4.32715,-8.73582 -7.1241,-12.41835 -15.13052,-19.92122 -17.67391,-16.56233 -43.17327,-29.63153 -76.56851,-39.24369 -11.92716,-3.433 -33.58083,-8.08518 -37.71822,-8.10358 -1.49502,-0.006 0.45176,3.90144 6.79377,13.63821 8.35859,12.8328 11.52816,23.71813 11.50543,39.51334 -0.0481,33.44185 -20.17314,60.95525 -52.89861,72.31889 -9.27518,3.22072 -12.60991,3.74695 -23.91093,3.77317 -11.43926,0.0265 -14.52228,-0.45604 -23.91092,-3.7427 -25.26268,-8.84366 -44.01764,-28.51982 -50.53768,-53.01993 -2.27968,-8.56635 -2.35918,-29.8045 -0.14257,-38.09021 2.10643,-7.87381 7.21971,-18.02278 13.53744,-26.86944 2.69363,-3.77185 4.32797,-7.04777 3.63187,-7.2798 -1.85646,-0.61882 -26.4912,4.46894 -39.50883,8.15966 -34.95358,9.90994 -65.55107,26.59962 -81.06609,44.21824 -3.28653,3.73215 -8.05246,10.96271 -10.59093,16.06793 -4.14478,8.33578 -4.60602,10.2487 -4.52344,18.76078 0.11707,12.06496 3.26523,20.35553 12.14811,31.9915 24.2726,31.79544 84.74451,55.40993 156.57403,61.14273 15.65454,1.2494 59.31031,-0.4562 76.29383,-2.9808 z m -55.51339,-7.0477 c -2.38915,-1.6735 -2.64502,-3.0471 -2.64502,-14.19963 0,-13.0466 1.24134,-16.27775 6.25359,-16.27775 5.00416,0 6.25359,3.23577 6.25359,16.19553 0,8.33275 -0.50121,12.65255 -1.56339,13.47445 -3.07187,2.3769 -5.69377,2.632 -8.29877,0.8074 z m -65.61246,-20.25743 c -1.13847,-1.25799 -2.06993,-2.88102 -2.06993,-3.60674 0,-1.83289 10.97695,-18.01271 14.03259,-20.68379 3.50644,-3.06515 6.82014,-2.72571 9.2253,0.94503 1.97473,3.01383 1.89206,3.40023 -2.15993,10.09434 -9.08195,15.00392 -14.20996,18.57507 -19.02803,13.25116 z m 128.43235,-0.52688 c -3.36881,-3.77708 -12.93473,-18.45081 -12.93473,-19.84134 0,-1.97099 4.93626,-6.11107 7.2863,-6.11107 1.25587,0 3.43666,1.26635 4.84618,2.81412 3.26562,3.58588 12.88189,18.9474 12.88189,20.57817 0,2.03372 -4.39586,5.37424 -7.0721,5.37424 -1.37369,0 -3.62708,-1.26635 -5.00754,-2.81412 z M 440.31161,812.72787 c -2.54485,-1.48224 -2.95424,-7.74902 -0.62536,-9.57307 2.06301,-1.61581 21.92257,-9.08753 24.15435,-9.08753 0.95721,0 2.67744,1.43011 3.82272,3.17803 3.61188,5.51244 1.07042,8.3271 -11.61662,12.86537 -12.25049,4.38211 -12.60397,4.44091 -15.73509,2.6172 z m 204.38899,-2.78061 c -11.25173,-4.3165 -13.40343,-6.40573 -11.56832,-11.23245 1.81642,-4.77753 5.57374,-4.85581 17.41355,-0.36284 12.03982,4.56887 15.28612,7.91726 12.20453,12.58831 -2.43535,3.69145 -6.40861,3.47285 -18.04976,-0.99302 z m -240.56682,70.39398 4.15785,-1.5347 -7.87501,-4.3647 c -23.91414,-13.25432 -40.51452,-28.44871 -48.86811,-44.72909 -6.08679,-11.86262 -7.19834,-17.98064 -7.21471,-39.71032 -0.009,-10.83435 -0.43696,-19.67771 -0.95288,-19.65194 -0.92591,0.0463 -5.93222,8.0377 -13.13819,20.972 -15.34792,27.54869 -5.08103,65.08342 22.29974,81.52575 12.949,7.7759 21.9341,10.195 35.55164,9.5716 6.535,-0.2991 13.75286,-1.2345 16.03967,-2.0786 z m 162.64929,-51.82013 c 15.71573,-4.18289 29.13434,-13.88909 37.86953,-27.39251 7.62671,-11.78983 10.03462,-19.68518 10.04231,-32.9279 0.009,-14.82991 -2.37662,-22.81669 -10.39396,-34.80363 -3.52287,-5.26713 -7.34226,-12.20354 -8.48751,-15.41424 l -2.0823,-5.83763 -10.94304,-1.09415 c -6.01867,-0.60178 -11.2277,-0.8095 -11.57561,-0.46158 -0.9998,0.99979 5.19689,24.14562 10.06421,37.59182 2.43702,6.73238 4.43094,13.50725 4.43094,15.05528 0,6.99846 -6.84876,7.6797 -14.46493,1.43881 -2.9382,-2.40763 -5.64784,-4.37751 -6.0214,-4.37751 -0.37358,0 -2.90813,2.25129 -5.63235,5.00287 -6.62619,6.69275 -10.25643,6.64885 -17.24357,-0.20851 l -5.31001,-5.21139 -5.88637,4.58604 c -8.3825,6.53074 -15.48161,5.91309 -15.48161,-1.34698 0,-1.6122 2.04938,-8.39422 4.55417,-15.07116 2.50479,-6.67693 6.06668,-17.90882 7.91533,-24.95975 l 3.36117,-12.81987 -5.72658,0.10957 c -3.14962,0.0603 -8.48899,0.48237 -11.86526,0.93804 -6.09644,0.82276 -6.15416,0.87409 -8.38793,7.45873 -1.2371,3.64665 -3.9662,8.79807 -6.06466,11.4476 -2.09848,2.64955 -5.64061,8.6711 -7.87141,13.38124 -3.87861,8.18936 -4.056,9.22549 -4.056,23.69191 v 15.12805 l 5.94516,11.97399 c 4.75495,9.57684 7.49524,13.37675 13.68794,18.9808 8.20872,7.42848 17.01578,12.36948 26.88278,15.08199 8.09142,2.22439 24.49617,2.25449 32.74096,0.06 z M 245.54995,792.10478 c 24.08647,-16.03503 54.29913,-27.54431 90.32665,-34.40931 l 8.44236,-1.60867 V 456.76915 c 0,-164.6247 -0.45427,-299.31764 -1.00947,-299.31764 -2.44536,0 -28.30725,5.10342 -40.3948,7.97125 -26.45901,6.27754 -52.60192,17.66514 -68.26748,29.73668 -7.19309,5.54283 -11.05756,10.16419 -15.53233,18.57441 l -2.99458,5.62823 -0.32284,299.87424 -0.32283,299.87425 9.02273,-9.49861 c 5.12447,-5.39472 14.22024,-12.9587 21.05259,-17.50718 z m 135.03984,-50.01751 c 18.42933,-13.964 54.6508,-29.26323 85.36254,-36.05543 50.69407,-11.2115 103.79711,-12.32835 154.77543,-3.25521 49.79138,8.86189 94.14693,29.28615 116.48458,53.63728 l 7.33656,7.99788 -0.0125,-325.05504 -0.0125,-325.05503 -3.02493,-6.49696 C 728.75769,80.437742 678.17293,57.859222 606.96986,47.757442 c -22.14174,-3.14132 -90.05931,-3.15159 -112.20028,-0.017 -47.66013,6.7475 -86.79944,19.24944 -111.41517,35.58843 -9.92987,6.59108 -19.30219,16.21877 -22.84602,23.468498 l -3.05689,6.25359 -0.29816,325.81219 -0.29816,325.81219 7.17711,-7.74027 c 3.94741,-4.2571 11.39829,-10.93863 16.5575,-14.84779 z m 174.46033,9.47114 c 1.96893,-2.05512 5.48491,-4.09397 7.81331,-4.53078 3.12828,-0.58686 4.04112,-1.29537 3.49673,-2.71402 -1.38922,-3.62024 -6.73225,-23.41231 -7.59594,-28.13747 -0.94728,-5.18249 -3.45632,-7.15773 -9.09204,-7.15773 -4.80117,0 -5.76044,1.39968 -8.14312,11.88182 -1.09457,4.81527 -3.10031,12.55409 -4.45721,17.19738 l -2.46711,8.44235 h 3.05689 c 1.75842,0 5.0413,1.84504 7.72871,4.34367 2.5695,2.38903 4.98864,4.35891 5.37586,4.37752 0.38723,0.0186 2.31498,-1.64762 4.28392,-3.70274 z M 221.81586,189.26903 c 18.07685,-18.67716 69.45277,-38.16455 115.31146,-43.73877 l 7.19164,-0.87416 v -9.38039 -9.38039 l -7.19164,0.8469 c -3.95539,0.46578 -16.14242,2.82182 -27.08228,5.23562 -47.67978,10.52022 -81.30174,27.99888 -91.10404,47.36125 -2.34169,4.62549 -4.07206,14.38326 -2.55062,14.38326 0.61342,0 3.05488,-2.004 5.42548,-4.45332 z M 365.57562,80.845002 c 18.21676,-16.46057 49.54576,-30.05666 89.98346,-39.05081 82.86087,-18.42992 184.52369,-10.79148 248.44803,18.66717 11.93516,5.50016 27.56097,15.672 33.60399,21.87499 2.71922,2.79121 5.39263,5.07492 5.94092,5.07492 1.84536,0 0.96211,-8.08523 -1.46808,-13.43901 -7.56302,-16.66141 -30.16038,-31.61065 -64.89454,-42.93082 -41.90281,-13.6565 -90.54516,-19.92207 -141.5105,-18.22778 -42.68106,1.41888 -77.39542,7.14352 -111.95652,18.46242 -30.86097,10.10709 -56.12879,26.12475 -63.25879,40.10068 -2.53495,4.96893 -4.65092,16.03451 -3.06613,16.03451 0.50122,0 4.1814,-2.95482 8.17816,-6.56627 z"
       id="path1" />
  </g>
</svg>
