<?xml version="1.0" encoding="UTF-8"?>
<svg width="64px" height="64px" viewBox="0 0 64 64" version="1.1" xmlns="http://www.w3.org/2000/svg" xmlns:xlink="http://www.w3.org/1999/xlink">
    <title>dim</title>
    <g id="dim" stroke="none" stroke-width="1" fill="none" fill-rule="evenodd">
        <path d="M32,8 C45.254834,8 56,18.745166 56,32 C56,45.254834 45.254834,56 32,56 C18.745166,56 8,45.254834 8,32 C8,18.745166 18.745166,8 32,8 Z M32,12 C20.954305,12 12,20.954305 12,32 C12,43.045695 20.954305,52 32,52 C43.045695,52 52,43.045695 52,32 C52,20.954305 43.045695,12 32,12 Z M43.3137085,20.6862915 C43.7176704,21.0902534 43.7576118,21.7318027 43.4068747,22.1827505 L36.8177007,30.6574437 C36.9365013,31.0846671 37,31.5349181 37,32 C37,34.7614237 34.7614237,37 32,37 C29.2385763,37 27,34.7614237 27,32 C27,29.2385763 29.2385763,27 32,27 C32.4654452,27 32.9160364,27.0635979 33.3435575,27.1825779 L41.8172495,20.5931253 C42.2681973,20.2423882 42.9097466,20.2823296 43.3137085,20.6862915 Z M46.34939,24.9141706 C47.3624189,26.9617206 47.9500994,29.2571962 47.9969636,31.6851293 L48,32 C48,33.3807119 46.8807119,34.5 45.5,34.5 C44.1745166,34.5 43.0899613,33.4684641 43.0053177,32.1643757 L43,32 C43,31.1562198 42.9163965,30.3319663 42.7570213,29.5350711 L46.34939,24.9141706 Z M32,16 C34.5440404,16 36.949403,16.5937503 39.0850727,17.6502356 L35.4165366,20.5040056 C33.9074775,19.8577798 32.2455207,19.5 30.5,19.5 C23.6994788,19.5 18.1673491,24.9306294 18.0037258,31.6917732 L18,32 C18,32.5522847 17.5522847,33 17,33 C16.4477153,33 16,32.5522847 16,32 C16,23.163444 23.163444,16 32,16 Z" id="Shape" fill="#000000" fill-rule="nonzero"></path>
    </g>
</svg>