<?xml version="1.0" encoding="UTF-8" standalone="no"?>
<!-- Created with Inkscape (http://www.inkscape.org/) -->

<svg
   version="1.1"
   id="svg1"
   width="960"
   height="960"
   viewBox="0 0 960 960"
   xmlns="http://www.w3.org/2000/svg"
   xmlns:svg="http://www.w3.org/2000/svg">
  <defs
     id="defs1" />
  <g
     id="g1">
    <path
       style="fill:#000000;stroke-width:0.498502"
       d="m 563.47355,762.29756 c -7.8631,-0.7738 -10.7679,-1.3512 -25.4236,-5.0529 -3.8385,-0.9696 -7.8278,-1.9675 -8.8653,-2.2176 -1.0374,-0.2502 -2.2712,-0.6642 -2.7417,-0.9202 -0.4706,-0.2558 -4.1083,-1.5811 -8.0838,-2.9449 -3.9756,-1.3638 -8.6864,-3.0392 -10.4686,-3.7232 -4.9153,-1.8864 -22.4665,-9.5421 -26.2861,-11.4658 -1.8561,-0.9348 -5.8423,-2.9317 -8.8583,-4.4374 -12.4244,-6.2032 -22.7057,-11.7327 -27.6668,-14.8798 -0.4113,-0.2609 -1.3086,-0.7514 -1.994,-1.0899 -0.6855,-0.3386 -1.8071,-0.9703 -2.4925,-1.404 -0.6855,-0.4336 -2.8166,-1.7551 -4.7358,-2.9366 -1.9192,-1.1815 -4.1108,-2.5743 -4.8701,-3.0953 -0.8746,-0.6 -3.6151,-1.2975 -7.4775,-1.9031 -3.3534,-0.5258 -7.2186,-1.2846 -8.5895,-1.6862 -1.3709,-0.4016 -4.2871,-1.2178 -6.4805,-1.8137 -6.78098,-1.8423 -10.67303,-3.3724 -18.94308,-7.4475 -6.64249,-3.2732 -16.74364,-9.3482 -19.70608,-11.8517 -0.40284,-0.3405 -1.93564,-1.5435 -3.40612,-2.6734 -3.71643,-2.8556 -12.96938,-11.8805 -14.77395,-14.4097 -0.82253,-1.1529 -1.832,-2.4685 -2.24326,-2.9236 -2.55811,-2.8307 -8.47454,-11.207 -8.47454,-11.9979 0,-0.2158 -0.41425,-0.9273 -0.92063,-1.5812 -0.50633,-0.6538 -1.87367,-2.9834 -3.03852,-5.17684 -2.65681,-5.00282 -2.98463,-5.37056 -7.33595,-8.22977 -3.35851,-2.20687 -3.91539,-2.39565 -9.47154,-3.21135 -3.24674,-0.47662 -9.60459,-1.51355 -14.12849,-2.30432 -4.52391,-0.79073 -10.24422,-1.78928 -12.7118,-2.21894 -10.63789,-1.85243 -16.01343,-2.92635 -24.9251,-4.97963 -21.55263,-4.96578 -27.0536,-6.26478 -29.66087,-7.00405 -1.50797,-0.42762 -7.67693,-2.08653 -13.7088,-3.68653 -12.93718,-3.43168 -33.37011,-9.80289 -42.37266,-13.21229 -1.91923,-0.72687 -5.9571,-2.17551 -8.97304,-3.21923 -9.74812,-3.37351 -24.43739,-9.35155 -40.1294,-16.33132 -5.43637,-2.41803 -20.42902,-10.00733 -28.41462,-14.38343 -17.084157,-9.36211 -28.916137,-17.1218 -46.317577,-30.37617 -7.33752,-5.58885 -22.90415,-20.46126 -28.69173,-27.41222 -18.61357,-22.35512 -27.1960898,-42.91633 -29.66002985,-71.05682 -0.55608,-6.35087 -0.58261,-38.73488 -0.0353,-43.12041 1.02173005,-8.18749 3.28662005,-17.43964 5.49142005,-22.43258 0.24214,-0.54836 1.4019,-3.24027 2.57725,-5.98203 1.17534,-2.74176 2.6491198,-5.88232 3.2750698,-6.97903 0.62594,-1.0967 1.50096,-2.77904 1.94449,-3.73851 1.55344,-3.3606 12.39012,-19.01521 14.321,-20.68808 0.31647,-0.27418 1.79797,-1.95662 3.29224,-3.73877 2.72393,-3.24873 11.84749,-12.50552 16.97736,-17.22528 9.71297,-8.9365 25.1434,-20.28709 39.37828,-28.96671 5.37085,-3.27481 6.79363,-4.10282 12.836417,-7.4703 1.30234,-0.72572 4.08993,-2.29106 6.19465,-3.47854 5.62232,-3.17197 21.29319,-10.86216 31.56688,-15.4908 11.60612,-5.22894 19.37283,-8.28127 39.1324,-15.37914 8.14855,-2.927 31.85718,-10.50568 38.09339,-12.17686 7.87478,-2.11031 27.65913,-7.16382 31.44764,-8.03271 2.19341,-0.50304 6.79209,-1.57247 10.21929,-2.37651 7.26123,-1.70348 21.10518,-4.47246 31.40563,-6.28152 3.97555,-0.69825 11.04182,-1.94471 15.70281,-2.76988 11.981,-2.12117 29.81864,-4.7419 40.62791,-5.96906 5.07226,-0.57587 12.02636,-1.36754 15.45356,-1.75931 29.53086,-3.37561 62.4455,-5.11473 111.9136,-5.91318 14.7609,-0.23829 62.0483,0.95936 77.0187,1.95059 30.6795,2.03144 68.0399,5.78536 86.9885,8.74053 9.6598,1.50647 32.8647,5.36373 37.1384,6.17335 14.096,2.67042 23.7283,4.68432 38.1904,7.9847 18.5211,4.22675 54.4494,14.42909 65.9965,18.74069 2.0563,0.76784 7.328,2.67416 11.7148,4.23632 31.149,11.09221 60.8188,25.37444 85.9916,41.39401 13.8448,8.81057 29.4375,20.57975 38.6339,29.16022 1.3709,1.27905 3.5428,3.30621 4.8265,4.50481 8.6408,8.06795 21.6254,24.76682 26.8898,34.58193 0.5882,1.0967 1.2497,2.11071 1.4699,2.25338 0.2202,0.14267 0.6381,0.81565 0.9288,1.4955 0.2907,0.67986 0.7181,1.57263 0.9499,1.98389 1.2601,2.23593 2.5746,5.34015 2.5734,6.07724 0,0.46361 0.2066,0.97148 0.4607,1.12856 0.2543,0.15708 0.7294,1.12372 1.0559,2.14804 0.3265,1.02437 0.8801,2.53543 1.23,3.35796 2.3841,5.60421 4.5951,16.51866 5.2406,25.87101 0.6135,8.88844 0.6027,41.63532 -0.016,49.50023 -1.0682,13.57117 -2.9248,21.60832 -7.5695,32.76768 -5.2327,12.57272 -9.0334,18.9347 -18.8246,31.51146 -4.0836,5.24524 -19.6341,21.2625 -24.6984,25.4398 -1.3709,1.13075 -4.175,3.44869 -6.2313,5.15097 -12.8946,10.67442 -37.7965,26.59364 -55.8322,35.69239 -6.7633,3.4119 -19.8241,9.66855 -20.1833,9.66855 -0.1807,0 -2.7236,1.13793 -5.6508,2.5287 -5.9561,2.82985 -26.2203,10.95857 -33.4877,13.43313 -2.6046,0.88694 -8.2128,2.82078 -12.4625,4.29749 -20.7725,7.21816 -53.0237,15.94528 -77.2678,20.90857 -10.9174,2.23503 -12.4593,2.71529 -12.4657,3.88293 0,0.30917 -0.3598,1.23509 -0.7959,2.05762 -0.436,0.82252 -2.8043,5.4212 -5.2629,10.21927 -2.4585,4.7981 -5.2555,10.1819 -6.2154,11.9641 -3.2965,6.1198 -13.4838,23.5148 -15.6191,26.6698 -0.7423,1.0967 -1.4756,2.3305 -1.6295,2.7418 -0.7158,1.9117 -21.5153,32.3898 -27.0397,39.6219 -10.3609,13.5637 -19.8669,24.9433 -22.8216,27.3197 -5.1619,4.1517 -13.011,7.0734 -21.7491,8.0955 -7.3159,0.8558 -11.336,0.8505 -20.2489,-0.026 z m 24.9251,-8.4026 c 13.4873,-3.7751 20.0738,-11.8678 20.1606,-24.7705 0.1207,-17.9548 -11.1321,-41.3466 -34.2962,-71.2936 -10.6921,-13.82291 -21.3074,-25.71288 -35.9638,-40.2823 -14.8674,-14.77909 -26.0363,-25.00217 -40.631,-37.19019 -1.6416,-1.37088 -3.5462,-2.97412 -4.2326,-3.56275 -5.7812,-4.9582 -19.831,-16.0216 -28.167,-22.17985 -12.7306,-9.40483 -41.1744,-28.60389 -50.8472,-34.32091 -2.4676,-1.45847 -5.8325,-3.48034 -7.4775,-4.4931 -7.65795,-4.71443 -31.13181,-17.45883 -39.63092,-21.51634 -2.3305,-1.11256 -6.81702,-3.25377 -9.97004,-4.75815 -3.15303,-1.50438 -6.8544,-3.16823 -8.22528,-3.69739 -1.37088,-0.52921 -2.94116,-1.1646 -3.48952,-1.41211 -14.12465,-6.37444 -32.55811,-12.40557 -47.10843,-15.41303 -21.23743,-4.38966 -39.79322,-3.9087 -49.48455,1.2827 -3.49769,1.87357 -7.42264,5.89154 -8.96685,9.17936 -3.68308,7.84159 -3.32805,20.45404 0.93648,33.26479 1.35737,4.0776 7.80031,18.44348 9.20225,20.51834 0.46316,0.68544 2.36086,3.826 4.21718,6.97903 3.66458,6.22454 7.89427,12.70617 11.87357,18.19532 2.48712,3.43079 14.79912,18.97229 16.59737,20.95099 0.50533,0.55598 1.91146,2.12626 3.12476,3.48951 9.54557,10.72508 28.17364,29.61262 36.42788,36.93531 2.60467,2.31071 5.16762,4.64449 5.69539,5.18622 1.44874,1.48703 1.81036,1.19132 1.0816,-0.8844 -0.36102,-1.02816 -1.18948,-4.44913 -1.84107,-7.60215 -1.07861,-5.21922 -1.18379,-6.93855 -1.17447,-19.19233 0.011,-14.12236 0.15673,-15.38297 2.96977,-25.65685 0.41047,-1.49919 0.74631,-3.59076 0.74631,-4.64788 0,-2.60288 2.19236,-8.95952 3.9924,-11.57576 3.36684,-4.89355 8.54757,-7.24762 16.72714,-7.60071 6.33486,-0.27348 12.18084,0.39122 19.07059,2.16833 4.97281,1.2827 11.92187,3.56245 12.80183,4.19988 0.27418,0.19865 1.3958,0.64117 2.49251,0.98345 2.8435,0.88748 4.39579,1.58708 14.45656,6.51572 4.93514,2.41763 10.31894,5.21577 11.96404,6.21806 1.6451,1.00229 4.2995,2.5304 5.8987,3.39575 10.0151,5.41931 24.0941,14.78068 35.1204,23.35212 13.5522,10.53504 18.809,15.11777 28.7712,25.08193 18.8818,18.88555 27.7862,31.88459 31.4336,45.88799 0.8531,3.275 1.0015,10.5822 0.2655,13.0761 -1.7288,5.8586 -6.7602,9.7239 -17.0223,13.0775 -2.4828,0.8113 -6.0157,2.3476 -7.8508,3.4138 -5.8349,3.3904 -9.3395,4.978 -16.1029,7.2946 -7.6617,2.6243 -14.3794,4.0932 -20.6606,4.5177 -6.022,0.407 -6.2379,0.5119 -4.0758,1.9811 0.9939,0.6753 1.9125,1.2279 2.0415,1.2279 0.129,0 1.8794,0.9723 3.8899,2.1607 9.7146,5.7426 27.9996,14.9837 40.5444,20.4909 6.0319,2.648 11.3552,5.027 11.8295,5.2868 1.5207,0.8326 10.8822,4.2928 19.3429,7.1494 11.8323,3.995 23.2586,6.8549 36.8731,9.229 4.5466,0.7929 23.1454,0.3466 26.6699,-0.64 z m 34.8659,-33.3853 c 8.0421,-10.9026 9.306,-13.7216 9.3077,-20.7601 0,-11.5883 -6.5041,-29.1045 -17.4072,-46.8592 -7.5893,-12.35862 -20.5507,-30.15833 -28.292,-38.853 -1.1132,-1.25034 -3.326,-3.84365 -4.9172,-5.76288 -8.489,-10.23854 -33.6644,-35.57001 -45.1522,-45.43193 -1.2337,-1.05916 -2.4675,-2.18279 -2.7417,-2.49694 -0.4775,-0.54711 -6.1464,-5.31653 -13.2453,-11.14362 -1.837,-1.50797 -6.226,-5.11268 -9.7532,-8.01052 -3.5272,-2.8978 -8.7685,-7.03103 -11.6474,-9.1849 -2.8788,-2.15393 -5.5708,-4.21578 -5.982,-4.58188 -3.1816,-2.83214 -25.2087,-18.5711 -33.7075,-24.08488 -6.0992,-3.95701 -15.5001,-9.92896 -16.9875,-10.79142 -0.8758,-0.50787 -3.5673,-2.15717 -5.981,-3.66514 -2.4136,-1.50796 -4.8376,-2.98712 -5.3865,-3.28702 -0.5489,-0.29985 -2.2318,-1.28459 -3.7398,-2.18827 -4.4521,-2.66793 -5.533,-3.27137 -15.2043,-8.48829 -5.9873,-3.2297 -19.50453,-10.02478 -23.18033,-11.65279 -6.01388,-2.66354 -13.1944,-5.8733 -15.84105,-7.08117 -1.4469,-0.66031 -2.91624,-1.20059 -3.26519,-1.20059 -0.34895,0 -0.84755,-0.20149 -1.10802,-0.4477 -0.26047,-0.24626 -2.60467,-1.17263 -5.20934,-2.05862 -2.60468,-0.88598 -6.75471,-2.38184 -9.22229,-3.32416 -7.42972,-2.83722 -23.56798,-7.41681 -33.13179,-9.40189 -14.41289,-2.99161 -30.2158,-3.2642 -40.6465,-0.7011 -9.30798,2.28723 -17.63381,8.17573 -24.692,17.46367 -0.67657,0.89028 -1.53723,1.93035 -1.91255,2.31126 -1.15394,1.17093 -0.34826,1.2308 4.24015,0.31515 5.86269,-1.16993 20.35877,-1.15927 29.09417,0.0214 10.73385,1.45074 18.1379,3.10487 27.41761,6.12524 2.05632,0.66929 6.31851,2.00632 9.47154,2.97117 3.15302,0.96485 7.13481,2.29854 8.84841,2.96374 1.7136,0.66516 4.62984,1.78205 6.48053,2.4819 1.85068,0.69984 3.81354,1.47302 4.36189,1.71808 0.54835,0.24507 2.73259,1.12263 4.85381,1.95004 10.12258,3.94864 38.57742,18.23939 50.23066,25.22719 1.50796,0.90424 3.75119,2.19486 4.98499,2.86804 5.7077,3.11419 9.5145,5.33845 12.9611,7.57299 2.0563,1.33319 4.8604,3.13064 6.2313,3.99439 12.2729,7.73262 24.8359,16.04 33.1503,21.92093 1.508,1.0666 3.4083,2.40607 4.223,2.97656 0.8147,0.57053 2.8337,2.061 4.4866,3.31219 1.6528,1.25114 7.0606,5.3251 12.0171,9.05315 4.9566,3.72809 11.1255,8.53894 13.7088,10.69077 2.5833,2.15188 6.4915,5.36603 8.685,7.14264 4.0852,3.3089 16.0536,13.65421 16.949,14.65057 0.2742,0.30508 1.508,1.37143 2.7418,2.36968 2.6811,2.16923 4.2453,3.61499 14.9297,13.79883 10.1229,9.64871 23.6214,23.47456 29.2887,29.9991 0.8335,0.95962 2.8038,3.20288 4.3784,4.98502 11.2825,12.77001 26.9317,34.04161 31.7229,43.12051 0.5787,1.0967 1.3431,2.3305 1.6985,2.7417 0.7926,0.917 6.0549,11.4324 8.1079,16.2013 3.7627,8.7407 6.0243,17.2694 6.8386,25.7896 l 0.3208,3.357 1.1318,-1.363 c 0.6226,-0.7496 3.0935,-4.0224 5.4911,-7.2728 z m -167.9659,-21.6866 c 1.0967,-0.268 3.9008,-0.8799 6.2313,-1.3599 2.3304,-0.48 4.4615,-1.0333 4.7357,-1.2296 0.2742,-0.1963 1.2837,-0.5208 2.2433,-0.7212 0.9596,-0.2004 2.3056,-0.6619 2.991,-1.0255 0.6854,-0.3635 2.48,-1.1089 3.988,-1.6565 1.508,-0.5475 3.8811,-1.6262 5.2736,-2.397 1.3925,-0.7709 3.2992,-1.8196 4.2372,-2.3305 2.3463,-1.2778 4.4447,-3.7978 4.4461,-5.3391 v -1.283 l -3.6141,1.2205 c -5.7855,1.9536 -9.7,2.5918 -15.8986,2.5918 -9.3567,0 -16.6303,-1.8896 -24.6047,-6.3918 -6.3573,-3.5892 -13.9974,-10.1674 -14.4325,-12.4264 -0.3027,-1.572 -1.229,-3.1159 -1.8694,-3.1159 -0.3103,0 -0.4155,-0.1486 -0.234,-0.3302 0.1816,-0.1815 -0.6093,-0.7507 -1.7576,-1.2648 -1.1483,-0.5141 -2.998,-1.6766 -4.1104,-2.5834 -1.1125,-0.9067 -2.5425,-1.9238 -3.1778,-2.2601 -1.2455,-0.6593 -0.9577,-0.7931 -5.3254,2.4758 -5.4362,4.0688 -11.9651,6.4126 -22.81143,8.1892 -1.73344,0.2839 -1.83135,0.3874 -1.30239,1.3757 1.05334,1.9682 11.30638,11.7086 15.49012,14.7156 4.1591,2.9893 10.1881,6.5441 14.3564,8.4647 7.5294,3.4693 11.8691,5.6821 12.9611,6.6088 1.1994,1.0179 1.6022,1.0483 10.7178,0.8088 5.2093,-0.1369 10.3688,-0.4681 11.4655,-0.736 z m 185.692,-3.0427 c 0,-0.2639 2.3875,-4.2456 5.3055,-8.8484 19.9522,-31.4715 35.8007,-62.74361 45.4765,-89.7336 3.8925,-10.85802 7.8048,-23.1783 9.4633,-29.80104 1.9936,-7.96133 5.781,-26.83078 7.004,-34.89514 3.2537,-21.45603 4.3613,-47.26612 2.7917,-65.05451 -0.9549,-10.82258 -1.1563,-11.85817 -2.7631,-14.20731 -1.5206,-2.22317 -6.6443,-7.23795 -9.701,-9.49476 -1.0967,-0.80977 -2.2381,-1.70039 -2.5364,-1.97916 -1.8841,-1.76046 -15.6561,-10.21091 -16.641,-10.21091 -0.2367,0 -0.5051,-0.16825 -0.5965,-0.37388 -0.091,-0.20563 -3.0824,-1.79241 -6.6467,-3.5262 -3.5643,-1.73379 -6.8416,-3.34246 -7.283,-3.57476 -0.4414,-0.23235 -4.0306,-1.68284 -7.9761,-3.22341 -3.9454,-1.54051 -7.7343,-3.04389 -8.4197,-3.34075 -4.3948,-1.90348 -24.3793,-8.0017 -34.6459,-10.57218 -2.7418,-0.68649 -8.9107,-2.06175 -13.7088,-3.05621 -29.4506,-6.10396 -41.0345,-7.65694 -82.2528,-11.02742 -12.6898,-1.03768 -63.1119,-1.22885 -73.2798,-0.27781 -3.7014,0.34616 -11.5528,1.07587 -17.4476,1.62148 -35.4335,3.27984 -62.71961,8.1023 -88.73333,15.68247 -5.34644,1.55792 -10.39377,3.01519 -11.2163,3.23837 -9.03166,2.45078 -42.86593,16.35842 -41.97177,17.25259 0.10877,0.10877 1.7455,-0.0259 3.63722,-0.2994 16.53431,-2.38997 42.58822,2.48064 74.22669,13.87615 4.661,1.6788 9.82049,3.70516 11.46555,4.50302 1.64505,0.79785 3.52331,1.60732 4.17386,1.79884 0.65059,0.19153 3.74808,1.55817 6.88341,3.03697 3.13528,1.47876 5.77485,2.68872 5.86567,2.68872 0.74516,0 22.3881,10.98494 30.9332,15.70032 6.6751,3.68344 27.7918,16.55521 38.8502,23.68134 2.1867,1.40917 12.4943,8.39682 15.9851,10.83654 7.6985,5.38058 8.9995,6.31946 9.6335,6.9523 0.3633,0.36256 1.7092,1.37009 2.991,2.23888 4.4608,3.02351 27.2992,20.43429 28.0034,21.34824 0.1371,0.17792 1.5041,1.3162 3.0377,2.5295 6.4842,5.12974 18.8276,15.86742 28.8629,25.10815 7.2428,6.66946 23.7656,23.14914 29.7238,29.64631 1.6123,1.75827 3.6046,3.9272 4.4271,4.81987 0.8225,0.89271 1.8351,2.03389 2.2501,2.53598 0.4151,0.50209 3.2237,3.82914 6.2414,7.39343 24.392,28.80982 40.0935,55.02898 45.8248,76.52008 0.6947,2.6046 1.4069,6.1378 1.5829,7.8514 0.176,1.7136 0.5133,3.1156 0.7496,3.1156 0.2363,0 0.4297,-0.2159 0.4297,-0.4797 z m -235.293,-3.1024 c -2.4902,-1.4224 -6.19211,-4.1244 -7.8945,-5.7621 -0.36644,-0.3525 -1.48807,-1.2443 -2.49251,-1.9818 -3.34918,-2.4591 -14.03956,-13.8989 -14.03956,-15.0238 0,-0.2278 -0.56176,-1.066 -1.24839,-1.8627 -2.60134,-3.0179 -8.91452,-14.622 -12.03638,-22.1235 -2.41594,-5.80528 -2.85482,-7.12401 -5.31309,-15.96475 -4.33218,-15.57978 -5.03666,-37.87363 -1.62696,-51.48618 0.75693,-3.02187 0.93225,-4.50192 0.566,-4.77879 -0.77637,-0.58698 -8.03107,-1.56953 -11.49755,-1.55717 -4.04823,0.0145 -8.96775,1.23938 -11.56569,2.87985 -1.65059,1.04227 -2.31121,1.86893 -2.87417,3.59659 -2.12391,6.51786 -2.83144,20.73728 -1.53792,30.90712 1.10154,8.66038 3.77944,19.68899 5.26532,21.68484 0.20414,0.27417 0.53714,1.05931 0.74003,1.74475 0.77118,2.60542 5.08482,10.93265 8.39263,16.20134 5.35346,8.5269 13.94115,18.3704 21.02138,24.0953 1.91923,1.5519 3.60167,2.9354 3.73876,3.0747 0.54367,0.5523 5.89429,4.3792 8.60345,6.1534 4.26099,2.7905 8.11651,4.9026 13.34824,7.3126 8.87351,4.0875 15.99491,6.057 10.45091,2.8903 z m 94.5841,-10.7461 c 1.299,-0.282 4.4475,-3.6036 5.1386,-5.4211 0.7097,-1.8668 0.5762,-6.5686 -0.282,-9.9314 -1.4573,-5.7099 -6.8508,-15.6887 -12.6465,-23.39823 -6.0557,-8.05509 -20.2942,-22.64016 -31.2159,-31.97566 -11.188,-9.56306 -27.5986,-21.3627 -40.1247,-28.8505 -1.7822,-1.06535 -5.3105,-3.20811 -7.8407,-4.76174 -5.4685,-3.35771 -19.62153,-10.46939 -27.3037,-13.71963 -3.01593,-1.27596 -6.40899,-2.73657 -7.54014,-3.24574 -2.82785,-1.27293 -9.81386,-3.25716 -15.84299,-4.49998 -7.15664,-1.47517 -14.81672,-1.16968 -18.79651,0.7497 -2.38758,1.15149 -2.98374,1.72955 -4.06399,3.94056 -0.69631,1.42511 -1.38349,3.41733 -1.52711,4.42704 l -0.26112,1.83594 2.3311,-1.07981 c 2.08453,-0.9656 3.14839,-1.07686 10.05787,-1.05194 5.91149,0.0214 8.83939,0.27253 12.46255,1.06914 15.28691,3.36115 28.63605,8.94826 47.60694,19.92532 5.2749,3.05228 7.6408,4.54509 15.161,9.56645 9.0159,6.02011 23.8035,17.50694 32.6952,25.39743 25.726,22.82905 39.1258,42.80395 39.1311,58.33205 0,3.2999 0.089,3.6307 0.8737,3.3007 0.4798,-0.2017 1.3741,-0.4756 1.9873,-0.6086 z m -22.5865,-4.8718 c 2.3826,-0.4155 5.8956,-1.3638 7.8068,-2.1074 3.4023,-1.3236 3.4684,-1.3833 3.1665,-2.8587 -0.8254,-4.033 -5.5581,-12.6794 -10.9666,-20.0352 -3.5859,-4.8769 -9.6077,-11.63091 -10.3702,-11.63091 -0.3151,0 -1.4699,0.84123 -2.5662,1.86939 -6.2339,5.84652 -23.8554,20.56322 -24.6221,20.56322 -0.8385,0 -1.1147,0.9344 -0.5746,1.9435 0.8898,1.6627 8.5676,7.1079 12.7388,9.0346 2.1934,1.0131 5.2218,2.1186 6.7297,2.4566 1.508,0.3379 3.4148,0.7953 4.2373,1.0165 2.5087,0.6745 9.8441,0.5465 14.4206,-0.2516 z m -88.19888,-16.9504 c 3.4084,-0.3119 12.46783,-2.462 13.45958,-3.1945 0.2741,-0.2025 1.2836,-0.6793 2.2432,-1.0597 2.0053,-0.7947 7.2434,-4.1769 7.7577,-5.009 0.1903,-0.308 0.1415,-0.7032 -0.1086,-0.8782 -0.25,-0.1749 -1.2611,-1.3276 -2.2468,-2.5614 -6.2729,-7.85153 -9.57309,-20.52006 -7.7917,-29.9101 0.9273,-4.88781 0.031,-14.60286 -1.87336,-20.30563 -1.08424,-3.24669 -3.52421,-8.43181 -4.14978,-8.81845 -0.30822,-0.19052 -0.56047,-0.75563 -0.56047,-1.25582 0,-0.50264 -0.50169,-1.07268 -1.12163,-1.27442 -0.61689,-0.2007 -1.23379,-0.40454 -1.37088,-0.45289 -0.13708,-0.0484 -1.00911,-0.49282 -1.93787,-0.98768 -3.80926,-2.02956 -15.58656,-6.78008 -19.24846,-7.76402 -0.82253,-0.22104 -1.85911,-0.55274 -2.30353,-0.73719 -1.07726,-0.4471 -1.24511,0.0856 -2.47925,7.86846 -2.28977,14.44 -1.23723,32.89215 2.62058,45.94094 3.89375,13.17037 12.70173,31.5556 14.82599,30.9469 0.43769,-0.1254 2.36604,-0.3717 4.28528,-0.5473 z m 46.12518,-3.5795 c 1.3447,-0.9238 12.8029,-10.0771 15.1516,-12.10372 6.0118,-5.18741 10.7527,-9.74457 10.6045,-10.19347 -0.4329,-1.31196 -18.4474,-16.94687 -23.2062,-20.14093 -3.0539,-2.04974 -4.3631,-2.14216 -11.4777,-0.81026 -6.3957,1.1973 -9.906,2.80652 -13.0362,5.97619 -1.4804,1.4989 -2.9796,2.72531 -3.3317,2.72531 -0.8507,0 -0.8163,2.16968 0.097,6.1075 2.2365,9.64362 6.5785,16.77773 13.4221,22.05328 2.3555,1.8157 9.9136,7.0887 10.2811,7.1727 0.1446,0.033 0.8175,-0.3209 1.4955,-0.7866 z M 315.61673,623.77774 c -0.49262,-0.65807 -1.48728,-1.5963 -2.21036,-2.08494 -1.33588,-0.90268 -19.04168,-18.60424 -25.88716,-25.88087 -4.65236,-4.94544 -13.42211,-14.93921 -16.41706,-18.70853 -1.23379,-1.55279 -3.48563,-4.37191 -5.00401,-6.26468 -13.55138,-16.89223 -27.6392,-41.44625 -33.00712,-57.52887 -2.57137,-7.70405 -3.11528,-11.18554 -3.11528,-19.94008 0,-9.74397 0.76375,-12.91808 4.71981,-19.61585 1.34013,-2.26888 2.9804,-5.68153 3.64505,-7.58366 1.85856,-5.31892 3.64096,-8.78715 6.75425,-13.14241 2.80218,-3.92012 9.83879,-11.46848 13.12077,-14.07505 3.48483,-2.76763 5.33278,-4.18149 6.41074,-4.90476 0.61296,-0.41127 1.36734,-0.97208 1.67646,-1.24626 0.81096,-0.71924 7.73232,-5.23427 8.02394,-5.23427 0.13504,0 1.50822,-0.80772 3.05148,-1.7949 1.54321,-0.98724 5.41722,-3.02681 8.60883,-4.53238 3.19161,-1.50561 7.41178,-3.50196 9.37812,-4.43636 1.96634,-0.93439 3.8245,-1.69889 4.12919,-1.69889 0.30473,0 1.66076,-0.56082 3.01339,-1.24626 1.35269,-0.68544 2.71335,-1.24625 3.02372,-1.24625 0.31041,0 1.27128,-0.32901 2.13523,-0.7311 1.51799,-0.70653 10.148,-3.85198 15.77814,-5.75077 3.44554,-1.16201 17.65963,-5.19704 23.92809,-6.79254 17.72439,-4.51139 42.26883,-8.96037 58.574,-10.61725 2.7417,-0.27856 9.2472,-0.9466 14.4565,-1.48448 22.6086,-2.33434 30.4331,-2.69396 58.8233,-2.70333 29.7635,-0.01 38.4115,0.42462 68.7932,3.45581 20.5962,2.05488 39.0391,4.99395 59.5586,9.49118 10.7532,2.35677 32.2429,8.70046 43.1328,12.73269 3.016,1.11669 7.2782,2.6962 9.4716,3.50995 5.2637,1.95278 20.4721,9.4299 27.6668,13.60221 17.0255,9.87328 28.7133,21.04546 34.3903,32.87312 3.4201,7.12573 4.2066,10.90263 3.8331,18.40668 -0.3091,6.20929 -0.928,8.74527 -3.4817,14.26663 -0.6975,1.50797 -1.7663,3.27247 -2.3753,3.92112 -0.9854,1.04964 -1.153,1.95422 -1.5242,8.22528 -1.0252,17.31577 -2.6499,30.10209 -5.6461,44.43357 -2.8865,13.80736 -5.8808,26.35954 -6.7783,28.41462 -0.2395,0.54835 -0.9866,2.90377 -1.6602,5.23427 -1.8806,6.5062 -4.0829,13.36902 -5.4389,16.94906 -3.289,8.68306 -7.3859,18.69926 -7.8305,19.14383 -0.2734,0.27342 -0.4971,1.0131 -0.4971,1.64371 0,0.6306 -0.2244,1.14655 -0.4985,1.14655 -0.2742,0 -0.4985,0.33086 -0.4985,0.73529 0,0.76221 0.9845,0.70952 4.985,-0.2668 0.9596,-0.23419 4.5488,-0.99182 7.976,-1.68364 3.4272,-0.69177 12.8489,-2.93732 20.9371,-4.99015 13.0843,-3.32087 19.4216,-5.07515 29.6609,-8.21063 1.645,-0.50373 4.8977,-1.48952 7.2282,-2.19057 6.1002,-1.83503 34.3722,-11.69635 36.6399,-12.77999 0.5484,-0.26201 4.9227,-2.07412 9.7208,-4.02685 4.7981,-1.95273 10.5184,-4.41134 12.7118,-5.46363 2.1934,-1.05229 5.4462,-2.52003 7.2283,-3.26165 7.1893,-2.99171 29.1356,-14.77749 42.0373,-22.57516 21.5694,-13.03633 44.648,-32.69066 57.7648,-49.19392 14.6506,-18.43311 21.3922,-33.40103 24.5683,-54.54693 0.9499,-6.32435 0.9489,-10.1832 0,-18.00001 -1.0213,-8.3707 -2.7576,-15.19632 -5.8883,-23.14693 -1.1724,-2.9773 -6.8668,-14.36638 -7.9465,-15.89329 -0.6117,-0.86505 -1.3359,-1.95323 -1.6094,-2.41823 -0.7006,-1.19132 -5.3365,-7.97479 -6.0654,-8.87533 -0.3329,-0.41126 -2.1138,-2.65452 -3.9576,-4.98502 -7.0437,-8.9027 -22.1648,-23.39749 -33.3454,-31.964 -8.6803,-6.65086 -33.104,-22.87122 -34.4381,-22.87122 -0.1502,0 -2.1899,-1.13219 -4.5326,-2.51594 -3.7725,-2.22825 -24.6719,-12.93762 -25.2479,-12.93762 -0.1233,0 -2.3247,-0.98439 -4.892,-2.18752 -5.024,-2.35453 -14.1636,-6.28701 -14.6116,-6.28701 -0.225,0 -6.3539,-2.63269 -10.4947,-4.50795 -0.5483,-0.24836 -2.2308,-0.89008 -3.7387,-1.42612 -1.508,-0.53604 -5.8824,-2.09107 -9.7208,-3.45561 -3.8385,-1.3646 -7.8764,-2.82322 -8.9731,-3.24146 -6.1982,-2.36365 -29.7649,-9.57219 -39.3816,-12.046 -3.8385,-0.98739 -8.325,-2.22482 -9.9701,-2.74979 -1.645,-0.52492 -5.0099,-1.40204 -7.4775,-1.94904 -9.1456,-2.02746 -16.0348,-3.57795 -18.9431,-4.26344 -7.7549,-1.82781 -10.3917,-2.41539 -15.952,-3.55497 -3.2901,-0.67427 -11.2537,-2.12068 -17.6968,-3.21424 -6.4432,-1.09356 -14.0402,-2.43434 -16.8823,-2.97945 -7.472,-1.43319 -19.9434,-3.23682 -34.2142,-4.94813 -58.0876,-6.96572 -78.7541,-8.21591 -136.091,-8.23251 -56.6348,-0.0165 -79.28672,1.3164 -136.09107,8.00744 -13.93477,1.64142 -25.787,3.35407 -37.88615,5.4746 -5.48352,0.96106 -13.78357,2.4106 -18.44457,3.22117 -4.66099,0.81056 -11.50293,2.12591 -15.20431,2.92301 -19.6325,4.22775 -24.209,5.23537 -29.91012,6.58561 -5.9552,1.41041 -17.47359,4.4591 -28.16536,7.4548 -13.7201,3.8442 -45.3389,14.2111 -52.34269,17.16168 -0.82253,0.34651 -5.53338,2.26594 -10.46855,4.26533 -4.93517,1.99944 -10.43115,4.29475 -12.21329,5.10067 -1.78215,0.80598 -5.03487,2.2793 -7.22828,3.27407 -10.0341,4.55077 -31.759067,15.79533 -32.070297,16.59921 -0.0914,0.23609 -0.44558,0.42921 -0.78707,0.42921 -0.55106,0 -10.24079,5.56797 -11.50931,6.61353 -0.27417,0.22602 -1.99348,1.35408 -3.82068,2.50682 -7.45601,4.70391 -14.31756,9.57074 -18.86116,13.37799 -0.68544,0.57438 -2.03139,1.63449 -2.99101,2.35583 -0.95962,0.72133 -1.85692,1.42536 -1.99401,1.56454 -0.13709,0.13919 -2.49251,2.19177 -5.23427,4.56125 -2.74176,2.36953 -5.79359,5.17315 -6.78185,6.23032 -0.98826,1.05718 -2.78287,2.847 -3.98802,3.97735 -2.54212,2.38444 -8.71471,9.13779 -9.85226,10.77921 -0.98441,1.42048 -1.60547,2.21335 -2.60238,3.32217 -3.30665,3.67779 -11.72628,17.35679 -13.83513,22.4773 -0.62105,1.50797 -1.33143,3.19041 -1.57863,3.73877 -1.10277,2.44624 -2.13235,5.10296 -2.51143,6.48052 -0.22636,0.82253 -0.88076,3.17795 -1.45425,5.23427 -4.5594098,16.34851 -2.9862798,33.17514 4.98811,53.3542 1.03248,2.61265 2.61183,5.97754 3.50967,7.47753 0.89784,1.5 2.63739,4.4097 3.86565,6.46602 6.57123,11.00139 16.20395,22.61066 27.20785,32.79076 3.75197,3.47107 14.53247,12.52193 16.74148,14.05542 0.95961,0.66615 1.85692,1.33997 1.994,1.49735 1.46532,1.68224 28.08347,19.45274 29.13795,19.45274 0.1888,0 1.321417,0.67298 2.516927,1.49551 1.1955,0.82253 2.2704,1.4955 2.38866,1.4955 0.11827,0 1.87245,0.92348 3.8982,2.05214 5.06513,2.82217 23.84737,12.35093 28.10977,14.26089 2.80914,1.25877 10.08201,4.41693 17.44757,7.57638 17.84648,7.65525 47.57732,17.91691 68.04551,23.48608 4.24973,1.15627 11.09167,3.05905 15.20431,4.22839 4.11264,1.16934 8.03835,2.23862 8.72379,2.37621 0.68544,0.13764 4.61114,1.06709 8.72378,2.06554 10.78878,2.61918 34.13692,7.37479 46.6231,9.49627 4.257,0.72332 8.96785,1.6138 10.46854,1.97885 1.50074,0.36505 3.35596,0.68858 4.12276,0.71889 1.38947,0.0549 1.39117,0.0511 0.4985,-1.14142 z m 98.10812,-14.22934 c 1.2992,-0.86057 4.2605,-1.99904 7.1576,-2.75178 2.7178,-0.70618 5.0326,-1.37507 5.144,-1.48644 0.4221,-0.42213 -16.4247,-11.74151 -17.4749,-11.74151 -0.519,0 -0.4072,0.69845 0.8385,5.23427 0.4518,1.64506 0.9612,5.06603 1.1322,7.60215 0.171,2.53613 0.4628,4.61115 0.6487,4.61115 0.1858,0 1.3351,-0.66057 2.5539,-1.46784 z m 538.6564,-206.35089 c -0.4034,-6.15555 -1.9272,-15.17255 -3.6229,-21.43793 -1.1626,-4.29549 -3.9979,-12.22621 -5.1562,-14.42221 -0.2426,-0.45996 -1.2681,-2.63094 -2.2789,-4.82435 -4.5051,-9.77657 -17.0401,-26.22998 -27.8573,-36.56577 -1.6209,-1.54874 -3.8654,-3.71319 -4.9877,-4.80989 -1.1222,-1.09671 -3.4974,-3.2278 -5.2781,-4.73577 -1.7808,-1.50797 -3.5446,-3.03264 -3.9197,-3.38812 -0.9762,-0.92522 -12.8081,-10.02802 -15.7686,-12.13144 -5.2522,-3.73169 -9.2292,-6.41453 -9.5088,-6.41453 -0.2478,0 -4.0682,-2.37322 -11.6776,-7.2541 -4.8657,-3.12107 -23.3827,-13.15926 -24.3019,-13.17431 -0.3428,-0.005 -0.6232,-0.2345 -0.6232,-0.50867 0,-0.27418 -0.3987,-0.4985 -0.886,-0.4985 -0.4874,0 -1.3286,-0.3022 -1.8694,-0.67159 -0.5409,-0.36934 -3.3387,-1.74331 -6.2176,-3.05322 -2.8788,-1.30991 -6.9167,-3.15881 -8.973,-4.1086 -9.5761,-4.42306 -33.8309,-13.74844 -46.61,-17.9203 -3.8384,-1.25309 -9.8952,-3.23049 -13.4595,-4.3942 -17.5352,-5.72504 -43.8222,-12.52411 -71.5351,-18.50235 -3.153,-0.6802 -12.3503,-2.37117 -20.4385,-3.75775 -28.4372,-4.8751 -38.7404,-6.39085 -58.8233,-8.6538 -32.2217,-3.63074 -42.059,-4.43228 -74.2768,-6.05201 -18.1103,-0.91047 -79.5043,-1.33958 -95.7123,-0.66894 -39.64964,1.64057 -51.15541,2.4631 -80.50811,5.75545 -15.66413,1.75692 -30.72173,3.63907 -35.64289,4.45516 -37.33181,6.19075 -48.47408,8.23047 -61.56499,11.27014 -43.39001,10.07507 -70.88158,18.42059 -104.43615,31.70338 -5.89479,2.33348 -12.62457,5.13935 -14.95506,6.23526 -2.3305,1.09591 -6.2562,2.88438 -8.72379,3.97446 -5.09416,2.25033 -27.39397,13.72201 -28.91311,14.87375 -0.27418,0.20787 -1.62013,0.9994 -2.99101,1.75896 -1.370877,0.75962 -3.165487,1.78678 -3.988017,2.28259 -0.82253,0.49586 -2.28065,1.33335 -3.24026,1.86111 -7.54558,4.14968 -30.24897,20.60354 -38.38465,27.81845 -7.89931,7.00535 -18.70585,18.37858 -23.36215,24.58732 -1.54217,2.05632 -2.91856,3.85093 -3.05866,3.98801 -0.81223,0.79482 -4.5823,6.14095 -5.00228,7.09349 -0.27445,0.62248 -1.19616,2.25343 -2.04825,3.62431 -2.47735,3.98572 -5.21146,9.26894 -6.19145,11.96404 -0.49848,1.37088 -1.17456,2.94117 -1.50238,3.48952 -0.32783,0.54835 -0.97397,2.23079 -1.43587,3.73876 -0.46191,1.50797 -1.03375,3.19042 -1.27077,3.73877 -0.6042,1.3978 -1.9045998,6.97464 -2.7608098,11.83977 -0.8792,4.99579 -0.96546,13.79385 -0.11609,11.83907 9.1022598,-20.9483 21.5822498,-36.67464 45.2928098,-57.07459 13.45871,-11.57955 38.6508,-27.44562 60.777627,-38.27807 22.19706,-10.86679 38.16164,-17.50574 61.31574,-25.49842 9.59297,-3.31145 12.29468,-4.20282 15.95207,-5.26279 2.05632,-0.59601 6.09418,-1.83284 8.97302,-2.74854 12.77217,-4.06259 38.59502,-10.84636 51.8614,-13.62416 3.96614,-0.83045 11.98753,-2.54036 17.82534,-3.79988 15.0902,-3.25562 45.32873,-8.34856 62.16703,-10.47053 5.68756,-0.71675 29.85254,-3.40946 44.86518,-4.99933 26.67213,-2.82461 60.14233,-4.24913 99.94963,-4.25392 52.4694,-0.006 79.35,1.57921 134.9102,7.95764 19.4883,2.23728 58.1706,8.39397 72.0004,11.45961 6.195,1.37328 18.8277,4.0923 27.1361,5.8408 5.4245,1.14157 28.4409,7.15859 35.6429,9.31785 2.3305,0.69875 6.817,2.04346 9.97,2.98822 35.3571,10.59466 73.453,26.38531 101.1469,41.92516 4.1319,2.31858 5.0888,2.88119 8.5236,5.01134 0.9596,0.59516 2.5299,1.56819 3.4895,2.16225 11.3691,7.0386 25.3757,16.84653 33.1386,23.20477 5.0784,4.1594 20.5198,18.82438 22.5388,21.40543 0.6003,0.76744 2.1154,2.56006 3.3669,3.98358 4.7916,5.45032 12.3084,15.96647 15.7465,22.0298 2.5288,4.45964 6.465,12.39221 6.465,13.02879 0,0.37398 0.258,0.68001 0.5734,0.68001 0.4154,0 0.4844,-1.35862 0.2505,-4.92844 z"
       id="path1" />
  </g>
</svg>
