<?xml version="1.0" encoding="UTF-8" standalone="no"?>
<!-- Created with Inkscape (http://www.inkscape.org/) -->

<svg
   version="1.1"
   id="svg1"
   width="960"
   height="960"
   viewBox="0 0 960 960"
   xmlns="http://www.w3.org/2000/svg"
   xmlns:svg="http://www.w3.org/2000/svg">
  <defs
     id="defs1" />
  <g
     id="g1">
    <path
       style="fill:#000000;stroke-width:1.32294"
       d="m 443.60267,958.77463 c -51.52759,-4.5927 -102.3729,-20.1837 -135.48883,-41.5455 -13.48777,-8.7005 -32.81524,-28.2931 -37.91399,-38.43416 -8.96836,-17.83737 -8.27381,18.33866 -7.8986,-411.40223 l 0.33958,-388.905101 3.89157,-7.93762 c 13.01275,-26.54195 58.72291,-50.25798 119.66694,-62.0873898 25.56517,-4.96227 49.63482,-7.42284 80.83515,-8.26355001 79.13446,-2.13232999 153.28293,12.97182981 196.78482,40.08535981 12.70921,7.9213 26.64699,21.59196 30.85696,30.26558 l 3.21062,6.61468 V 470.0768 c 0,360.95939 -0.17641,393.37144 -2.16929,398.56035 -17.81982,46.39828 -90.12914,82.59068 -180.13725,90.16258 -19.14476,1.6105 -53.76246,1.5985 -71.97768,-0.025 z m 91.39146,-15.7047 c 72.00024,-10.4046 128.66428,-39.1685 145.13125,-73.67196 13.26899,-27.80266 -0.7955,-57.1218 -38.62751,-80.52372 -15.35865,-9.50047 -24.98574,-13.84798 -46.93019,-21.19327 -14.39797,-4.81932 -46.36059,-12.51139 -51.98819,-12.51139 -1.62495,0 0.87912,5.08534 8.35166,16.9607 21.3201,33.88198 10.18493,82.44249 -24.13651,105.25933 -39.53569,26.28331 -89.74536,16.04611 -115.54096,-23.55754 -7.88019,-12.09833 -11.68894,-25.87034 -11.68894,-42.26587 0,-19.25455 4.11941,-31.63235 16.12009,-48.43678 2.84915,-3.98964 4.57786,-7.45472 3.84156,-7.70015 -0.7363,-0.24543 -7.76133,0.83657 -15.6112,2.40445 -47.97661,9.58252 -86.18874,27.03987 -108.20095,49.43201 -30.2522,30.77433 -25.88419,63.87949 12.23914,92.76059 32.4411,24.5765 85.39714,41.2603 146.51322,46.1591 15.82393,1.2684 62.75551,-0.5473 80.52753,-3.1155 z m -58.40471,-7.3945 c -2.70073,-1.8917 -2.94024,-3.1233 -2.94024,-15.1193 0,-13.8 1.31301,-17.2177 6.61468,-17.2177 5.30167,0 6.61468,3.4177 6.61468,17.2177 0,11.996 -0.23952,13.2276 -2.94024,15.1193 -1.61712,1.1326 -3.27063,2.0594 -3.67444,2.0594 -0.40382,0 -2.05733,-0.9268 -3.67444,-2.0594 z m -69.81206,-22.3262 c -2.50556,-3.824 -2.04692,-4.9173 7.66305,-18.2673 4.65608,-6.4015 7.33782,-8.9416 9.4402,-8.9416 7.47235,0 8.00852,7.0953 1.30097,17.2158 -9.26642,13.9814 -14.07885,16.5944 -18.40422,9.9931 z m 133.31594,-3.7268 c -8.78647,-12.0179 -9.55786,-13.3993 -9.55786,-17.1153 0,-3.6485 3.05162,-6.3668 7.14744,-6.3668 1.99294,0 10.15835,10.099 15.5394,19.2192 2.56213,4.3425 2.59761,4.8311 0.57489,7.9182 -3.58845,5.4767 -7.86042,4.3372 -13.70387,-3.6553 z M 363.51472,859.57559 c -2.69201,-1.56795 -3.12428,-8.19178 -0.66146,-10.13622 0.90951,-0.71807 6.79908,-3.22726 13.08792,-5.57596 12.23029,-4.56766 15.89896,-4.31529 17.65403,1.21448 1.52532,4.80584 -1.54066,7.47402 -13.507,11.75449 -12.88405,4.60874 -13.2629,4.67145 -16.57349,2.74321 z m 217.2923,-2.63507 c -10.71144,-4.10176 -14.71651,-7.59021 -13.60299,-11.84833 1.45112,-5.54907 5.12013,-5.80843 17.3825,-1.22878 13.69045,5.11298 14.7416,5.85625 14.7416,10.4238 0,7.67366 -3.93765,8.23778 -18.52111,2.65331 z m -82.72977,19.23421 c 11.55759,-3.01037 20.167,-8.14934 30.14346,-17.99269 23.50816,-23.19449 26.77793,-57.58482 7.96425,-83.76516 -2.63996,-3.67366 -6.06396,-9.95366 -7.60888,-13.95555 l -2.80894,-7.27615 -11.52467,-1.19471 c -6.33856,-0.65709 -11.84257,-0.87679 -12.23113,-0.48823 -1.06839,1.06839 5.36542,25.13184 10.63361,39.77133 2.56361,7.12392 4.66113,14.29754 4.66113,15.94138 0,7.41407 -7.23838,8.13959 -15.30016,1.53356 -3.10786,-2.54665 -6.08839,-4.63028 -6.62343,-4.63028 -0.53502,0 -3.17115,2.38129 -5.85808,5.29175 -6.59708,7.14593 -10.62856,7.09677 -18.08437,-0.22055 l -5.61661,-5.5123 -6.22626,4.85083 c -6.36271,4.95714 -11.87726,6.17405 -14.78801,3.2633 -2.46501,-2.46501 -2.07306,-4.38761 5.62633,-27.59843 3.96762,-11.9609 7.61564,-24.27721 8.10671,-27.36957 l 0.89285,-5.62248 -5.79157,0.11589 c -3.18537,0.0638 -8.68197,0.51023 -12.21468,0.9922 -6.19883,0.8457 -6.49247,1.08416 -8.40953,6.82951 -1.09252,3.27427 -4.09806,8.90982 -6.67899,12.52345 -2.58091,3.61363 -6.5358,10.45982 -8.78865,15.21377 -3.8717,8.17009 -4.09606,9.51309 -4.09606,24.51877 v 15.87524 l 5.64926,11.75853 c 9.08587,18.91166 24.2889,31.89338 43.55249,37.18908 8.77614,2.41263 26.07373,2.39187 35.41993,-0.0425 z M 300.82261,784.55577 c 25.80674,-19.39141 69.82932,-35.69561 114.61737,-42.44966 47.53482,-7.16827 83.4998,-7.17 130.8834,-0.007 56.00989,8.46783 106.2359,30.61846 131.19898,57.86127 l 7.79663,8.50894 V 464.52622 120.58273 l -4.03676,-8.07827 C 667.24566,84.414789 615.49011,61.614589 540.45746,50.466019 c -22.58529,-3.35579 -95.85905,-3.39004 -119.3403,-0.0558 -40.79228,5.79236 -75.54735,15.48829 -100.76073,28.11014 -22.29725,11.16202 -35.66362,22.784741 -42.56165,37.009471 -1.66635,3.43629 -1.97063,50.19631 -2.26771,348.49572 l -0.34313,344.5269 8.28075,-8.58801 c 4.55441,-4.7234 12.36547,-11.65732 17.35792,-15.40869 z m 185.09155,9.64044 c 2.97519,-2.54665 6.85428,-4.63028 8.6202,-4.63028 2.53649,0 3.01197,-0.48618 2.26419,-2.31514 -0.5206,-1.27332 -2.81674,-9.89551 -5.10255,-19.1604 l -4.15599,-16.84528 -4.40079,-0.84985 c -5.39171,-1.04123 -10.81298,1.22089 -10.81298,4.5119 0,1.34209 -1.98372,9.68935 -4.40826,18.54947 l -4.40826,16.1093 h 3.10476 c 1.71313,0 5.31967,2.05935 8.04633,4.59448 2.71787,2.52697 5.14461,4.61059 5.39275,4.63028 0.24815,0.0197 2.88541,-2.04783 5.8606,-4.59448 z M 281.24516,88.275009 c 11.10093,-11.72338 37.79248,-26.13798 64.74066,-34.96276 82.35824,-26.97003 193.15433,-26.38141 273.28978,1.4519 25.74944,8.94351 47.80647,21.05933 58.705,32.24637 2.87622,2.95237 5.704,5.36795 6.28395,5.36795 1.55336,0 1.28208,-6.87358 -0.47519,-12.03975 -9.77003,-28.72288 -69.33467,-54.80365 -146.63924,-64.20691 -26.7128,-3.24933 -87.13529,-3.28173 -113.11106,-0.0607 -61.88793,7.67429 -111.53356,25.03158 -134.74828,47.11123 -8.81905,8.38784 -12.10227,13.99058 -13.4448,22.94318 -1.10383,7.36089 0.0351,7.81431 5.39918,2.14945 z"
       id="path1" />
  </g>
</svg>
