<?xml version="1.0" encoding="UTF-8" standalone="no"?>
<!-- Created with Inkscape (http://www.inkscape.org/) -->

<svg
   version="1.1"
   id="svg1"
   width="1000"
   height="1000"
   viewBox="0 0 1000 1000"
   xmlns="http://www.w3.org/2000/svg"
   xmlns:svg="http://www.w3.org/2000/svg">
  <defs
     id="defs1" />
  <g
     id="g1">
    <path
       style="fill:#000000"
       d="m 83.571549,830.18718 c -12.73397,-2.6049 -21.91985,-5.3738 -26.47636,-7.9807 -4.28457,-2.4514 -9.82228,-7.8839 -11.7792,-11.5555 -3.46455,-6.5002 -3.31812,-4.8755 -5.96225,-66.15194 -0.29709,-6.88476 -0.65556,-14.07581 -0.79662,-15.98011 -0.14105,-1.9043 -0.61315,-10.65341 -1.04911,-19.44247 -2.50105,-50.42191 -3.1762,-63.87286 -4.29122,-85.4936 -0.15865,-3.07617 -0.6405,-13.7429 -1.07079,-23.70384 -0.8226,-19.04259 -2.03778,-44.06843 -2.92273,-60.19175 -0.28944,-5.27344 -0.76017,-15.10121 -1.04607,-21.83949 -0.28589,-6.73828 -0.63718,-13.56978 -0.78064,-15.18111 -0.14346,-1.61133 -0.39205,-5.68626 -0.55241,-9.0554 -0.16037,-3.36914 -0.40052,-7.68377 -0.53366,-9.58806 -0.13315,-1.9043 -0.36256,-6.45863 -0.5098,-10.12074 -0.86198,-21.4382 -0.75726,-19.1303 -2.69474,-59.39275 -2.84857,-59.19554 -3.26296,-67.58222 -4.00062,-80.96591 -0.3068,-5.5664 -1.14885,-22.58522 -1.87123,-37.8196 -0.72237,-15.23437 -1.66856,-34.65021 -2.10265,-43.1463 -1.27925,-25.03829 -1.06391,-29.13819 1.87454,-35.68892 1.44351,-3.21803 5.69746,-8.7007 8.39903,-10.82502 4.82226,-3.79187 10.66404,-6.04287 19.01525,-7.32708 10.92291,-1.67967 22.80209,-2.29868 71.111511,-3.70556 5.12695,-0.14931 16.27308,-0.50597 24.76917,-0.79258 8.4961,-0.28661 23.47745,-0.75988 33.29191,-1.05171 9.81445,-0.29183 21.55983,-0.64863 26.10085,-0.79288 4.54101,-0.14425 13.05043,-0.38713 18.9098,-0.53973 5.85938,-0.15261 13.64968,-0.39293 17.31179,-0.53405 8.91739,-0.34364 20.03041,-0.7315 38.61861,-1.34786 8.49609,-0.28172 22.27894,-0.74843 30.62855,-1.03713 19.12809,-0.66139 47.34776,-1.50706 62.58878,-1.87562 6.44531,-0.15587 14.11576,-0.39335 17.04545,-0.52774 2.92969,-0.1344 10.83985,-0.3754 17.57813,-0.53557 6.73828,-0.16018 14.16903,-0.39866 16.51278,-0.52997 2.34375,-0.13131 10.25391,-0.37746 17.57813,-0.54699 7.32421,-0.16953 14.51527,-0.40369 15.98011,-0.52035 1.46484,-0.11666 10.0941,-0.35888 19.17614,-0.53828 9.08203,-0.17939 17.47162,-0.4153 18.64342,-0.52423 1.1719,-0.10893 7.4042,-0.34909 13.8495,-0.53368 6.4453,-0.18459 17.4716,-0.56354 24.5028,-0.84211 7.0313,-0.27856 20.5744,-0.73677 30.0959,-1.01824 9.5215,-0.28146 19.7088,-0.63671 22.6385,-0.78943 2.9297,-0.15271 13.2369,-0.51514 22.9048,-0.80539 9.668,-0.29025 20.3347,-0.64756 23.7039,-0.79403 3.3691,-0.14646 11.0396,-0.39513 17.0454,-0.5526 6.0059,-0.15747 13.916,-0.40459 17.5781,-0.54917 3.6621,-0.14457 15.048,-0.49335 25.3019,-0.77505 10.2539,-0.28171 21.6397,-0.63557 25.3018,-0.78636 3.6621,-0.15079 11.6921,-0.39907 17.8445,-0.55173 6.1523,-0.15266 14.3022,-0.39702 18.1108,-0.54302 18.5339,-0.71047 36.8009,-1.3182 47.4077,-1.57724 6.4453,-0.1574 14.5951,-0.40186 18.1108,-0.54323 19.2643,-0.77468 90.622,-2.94602 107.8657,-3.28224 14.9911,-0.2923 17.063,-0.23002 19.4425,0.58443 8.2279,2.81619 13.7821,8.36436 16.5107,16.49259 1.1114,3.31085 1.3516,5.44806 1.8337,16.31538 0.3051,6.87801 0.6827,14.78263 0.839,17.56583 0.1564,2.7832 0.639,12.73082 1.0724,22.10582 0.4335,9.375 0.909,19.08292 1.0567,21.57315 0.1478,2.49024 0.5095,9.32174 0.8038,15.18111 0.2944,5.85938 0.7657,14.72834 1.0474,19.70881 0.2818,4.98047 0.766,14.68838 1.0761,21.57315 0.31,6.88476 0.7881,16.23313 1.0624,20.77414 0.7355,12.17886 1.2182,22.33254 2.9248,61.52344 1.1042,25.35884 2.1332,46.64933 2.6516,54.86505 0.1479,2.34375 0.634,11.09286 1.0804,19.44247 0.4463,8.34961 1.0374,19.01634 1.3135,23.70384 0.2762,4.68749 0.644,11.75869 0.8174,15.71377 0.1734,3.95508 0.5415,11.50568 0.818,16.77912 0.6522,12.44114 1.278,25.17923 2.9179,59.39275 0.7372,15.38086 1.5842,32.27983 1.8821,37.55327 0.2979,5.27343 0.77,14.3821 1.049,20.24147 0.582,12.22307 1.9234,38.18905 2.6037,50.40127 0.2549,4.57616 0.3557,9.01064 0.224,9.8544 -1.9238,12.32616 -8.9648,20.76796 -19.8808,23.83623 -2.5572,0.71879 -22.8713,3.01731 -59.3927,6.72024 -5.8594,0.59408 -12.2244,1.31324 -14.1445,1.59813 -4.4262,0.65672 -27.7461,3.29451 -47.1126,5.3291 -15.8346,1.6635 -30.801,3.3546 -37.8196,4.2733 -4.3006,0.5629 -15.4919,1.7567 -44.7444,4.7729 -8.789,0.9062 -21.9726,2.3526 -29.2968,3.2141 -14.0515,1.6529 -32.4827,3.6804 -45.8097,5.0394 -4.3945,0.4481 -9.9077,1.0436 -12.2514,1.3233 -2.3438,0.2797 -6.6584,0.7822 -9.5881,1.1166 -2.9297,0.3344 -5.8555,0.6874 -6.5018,0.7846 -3.8697,0.5815 -35.6865,4.0007 -52.0125,5.5894 -8.5567,0.8327 -34.1045,3.7492 -34.9693,3.9921 -0.4395,0.1234 -4.6343,0.6095 -9.3218,1.0803 -24.4685,2.4573 -42.0578,4.3597 -56.463,6.1068 -7.0313,0.8528 -19.8553,2.2815 -28.49791,3.175 -23.65415,2.4454 -34.38986,3.6109 -51.66904,5.6092 -13.26814,1.5345 -32.46186,3.6509 -55.9304,6.1671 -2.7832,0.2984 -12.01171,1.3652 -20.50781,2.3705 -8.49609,1.0053 -20.12162,2.3099 -25.83452,2.8991 -31.42403,3.2405 -45.44731,4.7696 -58.86008,6.418 -11.44479,1.4065 -31.28988,3.5821 -43.67898,4.7885 -5.5664,0.542 -13.95596,1.4732 -18.64346,2.0692 -10.60865,1.3488 -20.47174,2.4655 -31.16122,3.5282 -22.30594,2.2174 -40.96256,4.1984 -57.52841,6.1084 -20.043151,2.3109 -25.289461,2.5768 -30.362221,1.5391 z m 19.179401,-7.6209 c 3.66031,-0.4224 7.97348,-0.9079 9.5848,-1.0788 1.61133,-0.171 8.20313,-0.9089 14.64844,-1.6399 15.46447,-1.7539 27.58651,-3.0113 48.47301,-5.0281 6.15235,-0.5941 12.86399,-1.3025 14.91478,-1.5743 2.05078,-0.2718 6.12571,-0.7654 9.05539,-1.097 2.92969,-0.3316 7.00462,-0.8187 9.0554,-1.0826 2.05078,-0.2638 6.12571,-0.7378 9.0554,-1.0533 2.92969,-0.3154 6.16566,-0.6775 7.19105,-0.8046 1.02539,-0.1271 7.61719,-0.8439 14.64844,-1.5928 7.03125,-0.7489 17.93768,-1.9432 24.2365,-2.654 24.84379,-2.8037 35.74443,-4.019 43.14631,-4.8104 4.24805,-0.4542 9.76119,-1.0557 12.25142,-1.3368 2.49024,-0.281 7.16442,-0.753 10.38707,-1.0489 5.29581,-0.4861 8.85516,-0.8762 24.50285,-2.685 2.63671,-0.3047 6.47194,-0.7879 8.52272,-1.0737 2.05078,-0.2858 12.71751,-1.4828 23.70384,-2.66 27.57782,-2.9551 48.48428,-5.2829 50.07102,-5.5752 0.73242,-0.1349 14.27557,-1.5781 30.09588,-3.2072 15.82031,-1.6291 34.75673,-3.6754 42.08093,-4.5474 16.6927,-1.9872 27.8077,-3.2254 47.4077,-5.2811 8.4961,-0.891 17.2452,-1.8544 19.4425,-2.1407 9.7868,-1.2753 23.9887,-2.8266 48.7393,-5.3238 14.6485,-1.478 32.2665,-3.3901 39.1513,-4.2492 6.8848,-0.859 17.0721,-2.0452 22.6385,-2.6359 28.1548,-2.9877 41.3972,-4.463 50.6037,-5.6374 5.5664,-0.71 21.147,-2.3881 34.6236,-3.729 25.733,-2.5605 34.9576,-3.56416 55.9304,-6.0854 7.0312,-0.84526 15.3009,-1.80279 18.3771,-2.12785 24.7661,-2.61705 36.9095,-3.96152 46.076,-5.10137 12.5163,-1.55639 11.1522,-1.4057 31.1612,-3.44246 31.0996,-3.1657 36.3926,-3.74177 39.7466,-4.32583 5.9261,-1.03199 11.4986,-5.50347 14.0518,-11.27537 2.0388,-4.60903 2.2645,-7.17903 1.6376,-18.65121 -1.3086,-23.95139 -1.6107,-29.72393 -1.9155,-36.60723 -0.1751,-3.95508 -0.5423,-10.90643 -0.816,-15.44745 -1.082,-17.95076 -2.4432,-44.45147 -3.1877,-62.0561 -0.2973,-7.03125 -1.0129,-21.89275 -1.5901,-33.02557 -0.5773,-11.13281 -1.2839,-25.99431 -1.5703,-33.02556 -0.2865,-7.03125 -0.6454,-14.94141 -0.7975,-17.57813 -0.1522,-2.63671 -0.5149,-9.82776 -0.806,-15.98011 -0.2911,-6.15234 -0.657,-12.74414 -0.8132,-14.64843 -0.1561,-1.9043 -0.5172,-8.13654 -0.8023,-13.84944 -0.2852,-5.71289 -0.7544,-14.7017 -1.0427,-19.97514 -0.2883,-5.27343 -1.0052,-20.37464 -1.5932,-33.55823 -0.5879,-13.1836 -1.1907,-26.00764 -1.3395,-28.49787 -0.1488,-2.49023 -0.5223,-9.92099 -0.83,-16.51278 -0.3077,-6.5918 -1.0223,-20.9739 -1.5881,-31.96023 -0.5658,-10.98632 -1.3957,-27.28604 -1.8442,-36.22159 -0.7008,-13.96098 -1.6094,-31.39311 -2.6654,-51.13636 -0.1489,-2.7832 -0.5208,-10.5735 -0.8264,-17.31178 -1.4345,-31.62776 -1.3817,-31.02364 -2.9907,-34.20367 -2.036,-4.02414 -6.7069,-8.24278 -10.3663,-9.36249 -4.0673,-1.24457 -6.1519,-1.37254 -14.5885,-0.89558 -4.1016,0.23188 -13.3301,0.57033 -20.5078,0.75211 -7.1778,0.18178 -15.5673,0.4422 -18.6435,0.57871 -3.0762,0.13651 -14.5819,0.48719 -25.5682,0.77929 -23.3409,0.62059 -35.7078,0.99411 -44.2116,1.33536 -6.6631,0.26737 -15.0008,0.54938 -39.9503,1.35124 -8.9356,0.28719 -17.9244,0.63281 -19.9752,0.76806 -2.0507,0.13525 -9.841,0.3815 -17.3117,0.54722 -7.4707,0.16571 -16.2199,0.40537 -19.4425,0.53257 -3.2227,0.1272 -10.2939,0.36179 -15.7138,0.52131 -5.4199,0.15952 -13.2102,0.40979 -17.3118,0.55617 -4.1015,0.14638 -15.2477,0.4999 -24.7692,0.78561 -9.5214,0.2857 -21.0271,0.64593 -25.5681,0.80051 -4.5411,0.15458 -17.0055,0.51397 -27.6989,0.79865 -10.6934,0.28468 -23.2777,0.64253 -27.9652,0.79523 -21.2706,0.69288 -25.333,0.83819 -29.8296,1.067 -6.2381,0.31742 -18.1235,0.72155 -31.4275,1.0686 -5.8594,0.15285 -13.2901,0.39102 -16.5128,0.52926 -9.064,0.38883 -19.3506,0.75781 -29.56321,1.06043 -5.12695,0.15192 -13.03711,0.39951 -17.57812,0.55019 -4.54102,0.15069 -11.61222,0.38482 -15.71378,0.52031 -4.10156,0.13548 -12.13157,0.37507 -17.84446,0.53242 -5.71289,0.15734 -13.26349,0.40635 -16.77912,0.55334 -3.51562,0.14699 -14.90146,0.49906 -25.30185,0.78238 -10.40039,0.28331 -22.50532,0.64029 -26.89985,0.79328 -4.39454,0.15299 -16.61932,0.51432 -27.1662,0.80295 -19.17581,0.52478 -29.60353,0.85623 -42.61363,1.3545 -3.8086,0.14586 -17.11204,0.6231 -29.56321,1.06054 -12.45118,0.43743 -24.31641,0.90438 -26.36719,1.03767 -2.05078,0.13329 -10.56019,0.37638 -18.9098,0.54021 -8.34961,0.16382 -16.97887,0.40446 -19.17614,0.53476 -2.19726,0.13029 -9.50817,0.36907 -16.24645,0.53062 -6.73828,0.16155 -14.88814,0.40322 -18.11079,0.53704 -3.22266,0.13382 -9.69461,0.37316 -14.38211,0.53186 -4.6875,0.15871 -11.39914,0.39916 -14.91477,0.53434 -8.76432,0.337 -21.44981,0.71927 -44.965511,1.35501 -10.9615,0.29635 -21.01895,0.78285 -22.34988,1.08111 -7.12033,1.5957 -13.05038,7.6022 -14.7924,14.98308 -0.92412,3.91545 -1.04935,0.1798 1.95142,58.21453 1.00919,19.51766 2.34107,48.06082 2.9205,62.58877 0.15775,3.95508 0.39765,9.22852 0.53312,11.71875 0.13547,2.49024 0.37617,7.40412 0.53489,10.91975 0.6339,14.04119 1.86696,39.69202 2.12529,44.21164 0.45475,7.956 1.30392,23.61532 1.60314,29.56321 0.26445,5.25673 0.4534,8.75735 1.0638,19.70881 0.1388,2.49023 0.37727,7.28426 0.52993,10.6534 0.15266,3.36914 0.507,10.7999 0.78742,16.51279 0.28042,5.71289 0.6443,13.62304 0.80862,17.57812 0.33562,8.07822 1.69364,36.86009 2.12374,45.01065 0.38874,7.3668 1.75881,34.50098 2.40717,47.674 0.2956,6.00586 0.65281,12.71751 0.79379,14.91477 0.63505,9.89761 1.73026,31.70446 2.90262,57.79475 0.28962,6.44531 0.65666,13.63636 0.81565,15.98011 0.15899,2.34375 0.53299,10.85316 0.83112,18.9098 0.54258,14.6626 1.42005,32.05681 2.90208,57.52844 0.83386,14.3313 1.03389,18.1219 1.88528,35.725 0.72868,15.0659 1.81223,18.7283 7.04856,23.824 4.9401,4.8074 10.16547,5.714 23.839081,4.1361 z m 74.83694,-127.01745 c -2.71951,-1.25908 -4.71331,-3.39478 -6.10283,-6.53716 -0.87003,-1.96756 -1.16108,-4.02471 -1.39418,-9.8544 -0.16204,-4.05226 -0.64225,-14.19924 -1.06716,-22.54885 -0.4249,-8.34961 -1.13378,-22.49201 -1.57528,-31.42755 -0.44151,-8.93555 -1.40459,-27.51243 -2.14019,-41.28196 -0.7356,-13.76953 -1.56758,-29.35014 -1.84886,-34.62358 -0.82434,-15.45478 -1.68502,-33.23875 -2.92594,-60.45809 -0.1536,-3.36914 -0.51541,-10.79989 -0.80402,-16.51278 -0.28861,-5.71289 -0.88526,-18.41708 -1.32588,-28.23153 -0.44062,-9.81446 -0.90939,-18.68342 -1.04172,-19.70881 -0.13232,-1.02539 -0.38023,-5.57972 -0.5509,-10.12074 -0.17068,-4.54101 -0.64277,-14.48863 -1.04909,-22.10582 -3.00927,-56.4135 -3.14713,-59.80736 -2.51508,-61.91698 1.03555,-3.45636 3.59186,-6.47982 6.66677,-7.8851 2.58598,-1.18182 3.89892,-1.31289 20.87038,-2.08352 17.82486,-0.80938 28.45811,-1.3633 46.34233,-2.41411 12.98423,-0.76291 42.65929,-2.22901 59.39275,-2.9343 3.95508,-0.1667 8.86897,-0.41312 10.91975,-0.54759 2.05078,-0.13447 9.36168,-0.48404 16.24645,-0.77682 6.88476,-0.29279 14.79492,-0.65485 17.57812,-0.80459 2.7832,-0.14974 10.69336,-0.51856 17.57813,-0.81959 6.88476,-0.30104 24.62269,-1.14068 39.41761,-1.86588 60.87983,-2.98414 64.76185,-3.16879 78.03622,-3.71176 3.8086,-0.15579 14.59517,-0.63526 23.97013,-1.0655 9.375,-0.43023 25.5549,-1.14446 35.9553,-1.58717 17.4127,-0.7412 42.4503,-1.98556 54.0661,-2.68705 2.6367,-0.15924 9.588,-0.51598 15.4474,-0.79276 5.8594,-0.27678 14.968,-0.74472 20.2415,-1.03988 5.2734,-0.29515 15.221,-0.77667 22.1058,-1.07005 6.8848,-0.29337 14.9148,-0.65232 17.8445,-0.79765 2.9296,-0.14533 8.0832,-0.38803 11.4524,-0.53932 5.8438,-0.26241 11.5251,-0.53768 22.1058,-1.07108 2.6367,-0.13292 10.9173,-0.51642 18.4013,-0.85223 l 13.6072,-0.61055 2.7774,1.40741 c 2.6331,1.33431 5.4835,4.4022 6.4827,6.97744 0.2274,0.58594 0.6854,7.17773 1.0179,14.64844 0.6879,15.45867 0.922,20.25852 1.6627,34.0909 0.2903,5.41992 0.6522,12.25142 0.8044,15.18111 0.1521,2.92969 0.3874,6.88476 0.5228,8.78906 0.1354,1.9043 0.3738,6.09908 0.5298,9.32173 0.156,3.22266 0.5164,10.29386 0.8009,15.71378 0.2845,5.41992 0.7582,14.88814 1.0527,21.04048 0.2945,6.15235 0.6521,13.1037 0.7945,15.44745 0.1425,2.34374 0.3961,7.73703 0.5636,11.98508 0.1675,4.24805 0.6477,14.67507 1.0672,23.17116 0.4194,8.4961 0.8894,18.20401 1.0444,21.57315 0.4013,8.72384 1.2896,26.54043 1.6199,32.4929 4.0178,72.39442 5.6735,109.07339 5.0288,111.40817 -0.6667,2.4147 -4.1689,6.43449 -6.6188,7.59706 -1.2536,0.59484 -5.6013,1.2298 -13.1976,1.92745 -6.2306,0.5722 -17.3208,1.63832 -24.645,2.36913 -12.2209,1.2194 -38.4383,3.59036 -47.4077,4.28727 -2.0508,0.15934 -5.886,0.51233 -8.5227,0.78442 -2.6368,0.27208 -7.7903,0.74988 -11.4525,1.06176 -6.7681,0.57641 -23.8609,2.1306 -49.8046,4.52856 -7.9102,0.73113 -18.5769,1.69787 -23.7039,2.14831 -5.1269,0.45044 -13.1569,1.16944 -17.8444,1.59778 -4.6875,0.42834 -11.2793,1.02875 -14.6485,1.33425 -3.3691,0.30549 -10.7999,1.02315 -16.5128,1.59478 -5.7128,0.57163 -15.9002,1.519 -22.6385,2.10527 -13.49466,1.17412 -36.74217,3.21974 -54.86501,4.82776 -6.44532,0.57189 -14.95473,1.38427 -18.90981,1.80528 -3.95507,0.42102 -10.30717,1.03091 -14.11576,1.35531 -3.8086,0.32441 -9.08203,0.81864 -11.71875,1.0983 -2.63672,0.27966 -9.10867,0.87625 -14.38211,1.32575 -11.35034,0.96748 -24.97537,2.17374 -32.75923,2.90024 -3.07617,0.28712 -7.1511,0.65525 -9.0554,0.81808 -1.90429,0.16282 -4.42116,0.42761 -5.59304,0.5884 -1.17187,0.1608 -2.72993,0.3742 -3.46235,0.47423 -0.73243,0.10003 -3.36914,0.32915 -5.85938,0.50915 -2.49023,0.18 -7.04457,0.54979 -10.12074,0.82176 -3.07617,0.27197 -7.1511,0.6213 -9.0554,0.7763 -7.17754,0.58419 -21.7605,1.89768 -26.63352,2.39889 -6.48695,0.66722 -8.91426,0.88985 -23.4375,2.14966 -6.59179,0.5718 -14.26225,1.29018 -17.04545,1.59638 -2.78321,0.30621 -7.57724,0.78051 -10.65341,1.05401 -3.07617,0.27349 -12.17774,1.10782 -20.2257,1.85404 -17.64959,1.63652 -21.87188,1.69562 -24.78495,0.34691 z m 16.11377,-6.9456 c 5.78586,-0.56691 13.99542,-1.29551 18.24347,-1.61911 8.6636,-0.65995 20.55637,-1.76428 31.69389,-2.94299 4.10156,-0.43408 11.65217,-1.15105 16.77912,-1.59327 5.12695,-0.44222 10.52024,-0.92509 11.98509,-1.07305 1.46484,-0.14796 8.29634,-0.74853 15.1811,-1.3346 6.88477,-0.58607 13.71627,-1.17503 15.18111,-1.30881 1.46485,-0.13377 4.58097,-0.38132 6.92472,-0.55011 2.34375,-0.16878 6.29883,-0.54043 8.78906,-0.82588 4.40653,-0.50513 15.77479,-1.59572 38.61861,-3.70483 17.15433,-1.58381 17.43656,-1.61071 19.70881,-1.87853 1.17187,-0.13812 9.20188,-0.84936 17.84446,-1.58053 8.64257,-0.73117 16.67258,-1.44004 17.84446,-1.57526 1.17187,-0.13523 5.12695,-0.49919 8.78906,-0.8088 3.66211,-0.30962 7.13778,-0.66783 7.72372,-0.79603 0.58594,-0.1282 6.93803,-0.73409 14.11577,-1.34641 13.40641,-1.14369 23.32543,-2.01505 39.15128,-3.43932 10.37851,-0.93403 13.34121,-1.19024 18.90981,-1.63533 2.1973,-0.17563 11.1861,-1.01848 19.9751,-1.87301 19.1791,-1.86471 50.2431,-4.71106 75.3729,-6.90628 10.1074,-0.88295 20.5344,-1.84667 23.1712,-2.14161 5.5536,-0.62123 25.7018,-2.38142 36.667,-3.20333 10.9194,-0.81847 10.1215,-0.45827 9.7429,-4.39804 -0.5051,-5.25608 -0.9047,-12.64426 -2.7285,-50.44547 -1.1619,-24.0824 -2.8983,-58.67319 -3.1954,-63.65411 -0.5843,-9.7974 -0.7921,-13.67339 -1.0855,-20.24148 -0.1701,-3.80859 -0.6522,-12.79741 -1.0712,-19.97514 -0.7885,-13.50761 -1.2507,-22.89443 -2.6231,-53.26704 -0.4435,-9.81445 -1.04,-22.03924 -1.3257,-27.16619 -0.2857,-5.12696 -0.6564,-12.67756 -0.8237,-16.77912 -0.3127,-7.66199 -1.0942,-22.60614 -1.6019,-30.62855 -0.329,-5.19979 -1.7036,-34.05511 -2.2139,-46.47549 l -0.3447,-8.38956 -3.2458,0.0117 c -1.7851,0.006 -8.1596,0.23942 -14.1654,0.51773 -6.0059,0.27832 -16.7925,0.759 -23.9702,1.06818 -7.1778,0.30919 -15.6872,0.78204 -18.9098,1.05078 -3.2227,0.26874 -9.3351,0.62398 -13.5831,0.78943 -7.6155,0.29659 -13.7704,0.58916 -23.1712,1.10144 -6.0984,0.33232 -22.3476,1.10236 -44.7443,2.12042 -9.668,0.43946 -20.2148,0.92018 -23.4375,1.06825 -3.22266,0.14808 -11.49237,0.51116 -18.37713,0.80685 -22.60255,0.97073 -41.96804,1.87217 -51.66904,2.40511 -2.7832,0.1529 -12.18123,0.63102 -20.88451,1.0625 -8.70328,0.43147 -18.1715,0.90893 -21.04049,1.06103 -2.86898,0.1521 -10.13022,0.5142 -16.13608,0.80467 -6.00586,0.29047 -17.99094,0.88096 -26.63352,1.31219 -8.64258,0.43123 -21.58647,1.02475 -28.76421,1.31893 -32.7957,1.34414 -69.5734,3.08632 -72.97585,3.4569 -1.31836,0.14359 -5.63299,0.39702 -9.58807,0.56318 -3.95507,0.16617 -14.02255,0.6454 -22.37215,1.06498 -8.34961,0.41957 -18.53694,0.90288 -22.6385,1.07401 -4.10156,0.17114 -7.95251,0.40994 -8.55767,0.53068 -2.73187,0.54503 -4.69417,3.95705 -4.24624,7.38333 0.24425,1.86836 0.50407,6.75714 1.63077,30.68479 0.43455,9.22852 1.14527,22.89152 1.57938,30.36222 0.43411,7.4707 1.02633,18.73668 1.31603,25.03551 0.28971,6.29883 0.88031,18.16406 1.31246,26.36718 1.0475,19.88406 1.23457,23.78317 2.45332,51.13636 1.8785,42.16031 2.12187,47.19571 3.17947,65.7848 0.57505,10.10742 1.29371,23.53072 1.59702,29.82954 0.30331,6.29883 0.78551,15.6472 1.07155,20.77415 0.28603,5.12695 0.64707,11.8386 0.80229,14.91477 0.15523,3.07617 0.39726,7.75036 0.53786,10.38708 0.39594,7.42563 1.36223,27.33047 1.77345,36.53165 0.39593,8.859 0.92594,10.65794 3.43825,11.66991 1.60555,0.64671 1.25157,0.66012 13.01987,-0.49298 z m 163.17881,-34.73339 c -4.1397,-2.86514 -4.33185,-3.72447 -5.46217,-24.42761 -1.04526,-19.14493 -0.92427,-20.05063 3.12428,-23.38779 2.38887,-1.96911 1.49766,-1.82775 20.39971,-3.23547 8.34961,-0.62184 19.33126,-1.48805 24.40366,-1.92493 13.23587,-1.13999 15.05537,-1.12988 17.19594,0.0956 3.55077,2.03279 4.05817,4.06358 4.97953,19.92988 0.45084,7.76368 0.96136,15.94417 1.13448,18.17889 0.36741,4.74233 -0.60409,7.33826 -3.60005,9.61969 -2.41841,1.84162 -2.54377,1.86627 -14.28402,2.80881 -5.71289,0.45865 -11.58558,0.94185 -13.05042,1.07378 -1.46485,0.13194 -6.01918,0.50437 -10.12074,0.82763 -4.10156,0.32326 -8.29634,0.68985 -9.32173,0.81466 -1.02539,0.1248 -4.50107,0.3746 -7.72373,0.55511 -5.56304,0.31161 -5.95118,0.26466 -7.67474,-0.92823 z m 24.18753,-5.51986 c 9.66797,-0.73415 18.29723,-1.44194 19.17614,-1.57288 0.8789,-0.13094 4.35458,-0.39907 7.72372,-0.59585 6.65662,-0.38878 8.85872,-1.1215 9.35881,-3.11403 0.17537,-0.69872 0.0541,-6.14758 -0.26952,-12.10856 -0.32361,-5.96099 -0.72273,-13.47488 -0.88693,-16.69754 -0.33686,-6.61126 -0.88513,-8.58688 -2.53344,-9.1289 -1.36396,-0.44852 -1.30523,-0.45174 -15.78966,0.86741 -6.29883,0.57366 -16.48615,1.41245 -22.6385,1.86398 -16.58748,1.2174 -16.72922,1.23883 -18.25003,2.75963 -1.48503,1.48504 -1.47686,-0.47823 -0.10383,24.9447 0.26899,4.98047 0.49364,9.72547 0.49923,10.54445 0.0155,2.27399 2.24028,4.22482 4.40464,3.86234 0.95218,-0.15947 9.6414,-0.89061 19.30937,-1.62475 z m 5.76055,-12.31845 c -3.46127,-2.8212 -6.59285,-5.50373 -6.95906,-5.96118 -1.6787,-2.09696 -0.42597,-4.18716 7.71062,-12.86525 l 4.23178,-4.5134 1.4196,0.93016 c 0.78078,0.51159 1.41961,1.4237 1.41961,2.02691 0,0.61648 -1.97942,3.35188 -4.52022,6.2466 -2.48612,2.83241 -4.52359,5.43485 -4.5277,5.78319 -0.004,0.34833 2.07196,2.3858 4.6135,4.52769 6.0221,5.07516 6.5651,5.6144 6.5651,6.51967 0,1.07445 -1.49024,2.43506 -2.66706,2.43506 -0.54612,0 -3.8249,-2.30825 -7.28617,-5.12945 z m 49.59373,11.53809 c -1.65849,-0.67093 -3.85763,-3.53548 -4.42738,-5.76702 -0.2771,-1.08531 -0.90266,-9.61673 -1.39013,-18.9587 -0.82353,-15.7823 -0.82412,-17.14826 -0.008,-19.28448 1.06856,-2.79797 3.90193,-5.40156 6.25736,-5.7499 2.43281,-0.35979 26.20134,-2.35225 35.83348,-3.00384 4.39453,-0.29728 10.14739,-0.75388 12.78409,-1.01467 5.4502,-0.53908 7.3839,-0.31056 9.4173,1.11291 3.5183,2.46283 3.6637,3.28191 5.2706,29.68668 0.622,10.22184 0.5299,11.74722 -0.8904,14.74016 -1.5809,3.33151 -4.8413,4.46354 -15.1292,5.25294 -11.28655,0.86602 -30.63574,2.53283 -34.62356,2.9826 -5.45951,0.61575 -11.57614,0.6173 -13.09387,0.003 z m 13.35251,-5.06135 c 12.54581,-1.15215 25.60994,-2.27895 34.36491,-2.96402 4.2481,-0.33241 8.2755,-0.82427 8.9499,-1.09303 1.362,-0.54274 2.9629,-3.79754 2.5509,-5.18623 -0.1457,-0.49119 -0.6397,-7.00546 -1.0979,-14.47617 -0.8063,-13.1457 -1.1365,-16.82127 -1.6866,-18.77017 -0.4226,-1.49764 -3.1501,-1.82915 -9.4738,-1.1515 -3.24545,0.34779 -9.13682,0.91009 -13.0919,1.24955 -3.95508,0.33946 -8.50941,0.73481 -10.12074,0.87854 -1.61133,0.14374 -7.33182,0.59469 -12.71221,1.00212 -8.93845,0.67688 -9.89776,0.84725 -11.11815,1.97458 l -1.33563,1.23379 0.35313,9.32173 c 0.95179,25.12485 1.22791,27.655 3.10044,28.40939 1.09578,0.44146 2.36857,0.39326 11.31765,-0.42858 z m 8.56442,-7.80776 c -0.75112,-0.59083 -1.35859,-1.35647 -1.34994,-1.70141 0.009,-0.34495 2.41547,-3.2639 5.34847,-6.48656 l 5.33273,-5.85937 -2.55195,-2.29353 c -1.40357,-1.26144 -3.80115,-3.26082 -5.32797,-4.44306 -1.52681,-1.18224 -2.92125,-2.60709 -3.09875,-3.16634 -0.77934,-2.45549 1.42707,-4.44726 3.37696,-3.04845 0.53664,0.38498 3.77513,2.96633 7.19664,5.73634 8.29973,6.71936 8.29889,6.32022 0.0319,15.17158 -3.40396,3.64458 -6.50479,6.74767 -6.89072,6.89577 -0.38594,0.1481 -1.31626,-0.21414 -2.06738,-0.80497 z m 217.29559,9.96912 c 1.4648,-0.16341 4.3412,-0.42857 6.392,-0.58924 2.0508,-0.16067 4.8074,-0.40194 6.1257,-0.53615 1.3184,-0.13422 4.0749,-0.37852 6.1257,-0.5429 2.0508,-0.16437 9.8411,-0.87248 17.3118,-1.57356 7.4707,-0.70109 15.8603,-1.43562 18.6435,-1.6323 5.8052,-0.41023 8.0626,-1.16571 9.3489,-3.12888 0.8557,-1.30594 0.8574,-2.55078 0.029,-21.21814 -0.4841,-10.90694 -1.105,-23.66603 -1.3797,-28.35353 -0.2748,-4.6875 -0.626,-11.15944 -0.7805,-14.3821 -0.1544,-3.22265 -0.6468,-12.45117 -1.0942,-20.50781 -0.4473,-8.05664 -1.1756,-22.19904 -1.6185,-31.42755 -0.4429,-9.22852 -1.2764,-26.36719 -1.8524,-38.08594 -0.576,-11.71875 -1.2827,-26.2207 -1.5705,-32.22656 -0.2879,-6.00586 -0.7619,-15.71378 -1.0535,-21.57315 -0.2916,-5.85938 -0.6606,-13.52983 -0.8201,-17.04545 -0.1595,-3.51563 -0.4013,-8.66922 -0.5374,-11.45242 -0.1361,-2.7832 -0.3792,-8.17649 -0.5403,-11.98508 -0.161,-3.8086 -0.523,-10.52024 -0.8044,-14.91477 -0.5904,-9.21894 -2.4751,-45.64469 -3.0782,-59.49011 -0.5718,-13.12856 -0.4962,-13.06113 -13.6875,-12.20775 -9.0598,0.5861 -9.6571,0.61667 -38.089,1.94915 -10.1074,0.4737 -18.4764,0.95947 -18.5977,1.07951 -0.1213,0.12003 0.059,5.31253 0.401,11.53889 0.3418,6.22636 0.7438,14.31692 0.8933,17.97903 0.1496,3.66211 0.3852,8.33629 0.5238,10.38707 0.1386,2.05078 0.3782,6.72497 0.5326,10.38708 0.1544,3.6621 0.4001,8.57599 0.546,10.91974 0.3343,5.37134 1.7393,32.97788 2.1282,41.81463 0.1611,3.66211 0.4005,8.33629 0.5319,10.38707 0.2688,4.19419 1.1725,22.38994 1.5741,31.69389 0.1454,3.36914 0.5062,11.03959 0.8019,17.04545 0.2956,6.00586 0.897,18.47035 1.3364,27.69887 0.4394,9.22851 0.9218,19.05628 1.072,21.83948 1.0121,18.75387 1.3363,25.06918 1.6137,31.42756 0.1725,3.95508 0.4012,7.91015 0.5083,8.78906 0.1071,0.87891 0.346,5.79279 0.531,10.91974 0.1849,5.12696 0.4325,9.92099 0.5501,10.65341 0.1177,0.73242 0.3518,4.4478 0.5203,8.25639 0.1685,3.8086 0.5406,10.8798 0.8267,15.71378 0.4463,7.53729 2.1084,41.2008 2.1084,42.70178 0,0.28397 0.4195,0.39765 0.9322,0.25261 0.5127,-0.14503 2.1306,-0.39739 3.5955,-0.5608 z m -0.753,-83.32309 c -0.8802,-1.64472 -0.1273,-3.15124 1.7342,-3.47022 0.9251,-0.15854 6.2364,-0.66365 11.8029,-1.12247 5.5664,-0.45882 12.8773,-1.06398 16.2464,-1.3448 24.6199,-2.05205 23.9539,-2.07404 23.9539,0.791 0,2.25814 -0.6915,2.5311 -7.5189,2.96816 -3.6193,0.2317 -14.8503,1.03674 -24.9577,1.78898 -21.9108,1.63071 -20.6092,1.60687 -21.2608,0.38935 z m -5.1492,-86.56442 c -0.5676,-1.47909 0.2144,-3.40547 1.503,-3.70269 0.6617,-0.15263 12.5055,-1.06695 26.3196,-2.03183 26.9971,-1.88568 26.8189,-1.89139 26.8189,0.85984 0,1.80351 -0.9412,2.2724 -5.3267,2.65349 -2.1973,0.19094 -4.7141,0.43765 -5.593,0.54824 -0.8789,0.11059 -6.1524,0.46298 -11.7188,0.78309 -5.5664,0.32011 -10.8398,0.68514 -11.7187,0.81118 -0.8789,0.12604 -5.7263,0.39377 -10.7719,0.59494 -8.2551,0.32914 -9.2078,0.27743 -9.5124,-0.51626 z m -3.0831,-85.71653 c -0.773,-0.57056 -0.913,-1.1087 -0.6272,-2.40994 0.4167,-1.89713 0.6737,-1.97468 8.2808,-2.49852 2.4902,-0.17149 5.9659,-0.42642 7.7237,-0.56651 1.7578,-0.1401 8.9489,-0.61601 15.9801,-1.05758 7.0313,-0.44157 14.5243,-0.9455 16.6513,-1.11984 4.41,-0.36148 5.4545,0.12614 5.4545,2.54638 0,1.99748 -0.9416,2.33859 -7.7237,2.79786 -2.9297,0.19839 -6.645,0.46841 -8.2564,0.60005 -5.5996,0.45746 -18.4149,1.27496 -24.7691,1.58005 -3.5157,0.1688 -7.5906,0.43194 -9.0554,0.58477 -1.8082,0.18864 -2.983,0.042 -3.6586,-0.45672 z m 182.9022,164.3834 c -5.6702,-0.88972 -13.2043,-2.66903 -16.6963,-3.94309 -22.5722,-8.23559 -41.3535,-29.61227 -48.5037,-55.20636 -2.6528,-9.49567 -3.1283,-13.16207 -3.3017,-25.45744 -0.2433,-17.25769 1.7142,-28.031 7.29,-40.12061 0.8539,-1.8515 1.5526,-3.46213 1.5526,-3.57919 0,-0.35819 5.0945,-8.85456 7.1739,-11.96426 3.4319,-5.13234 11.3296,-13.69501 15.7,-17.02194 2.3262,-1.77074 4.3655,-3.21953 4.5318,-3.21953 0.1663,0 1.319,-0.73679 2.5616,-1.63731 1.2426,-0.90053 3.6975,-2.30629 5.4553,-3.12393 1.7578,-0.81763 4.2746,-1.98572 5.593,-2.59575 8.1347,-3.76407 15.4456,-5.12463 27.4325,-5.1052 7.99,0.0129 10.476,0.21617 14.9148,1.21925 2.9297,0.66204 7.946,1.43166 11.1472,1.71025 5.863,0.51023 14.593,2.42933 18.2858,4.01971 7.4755,3.21947 13.689,6.85597 18.5039,10.82966 5.8258,4.80791 13.5684,13.92099 17.4323,20.51783 4.2636,7.27915 9.7938,21.63182 10.9806,28.49787 1.8701,10.81968 2.3569,16.41459 2.0391,23.4375 -1.1048,24.42092 -9.9789,45.85925 -25.3385,61.21384 -6.0817,6.07968 -10.4258,9.23948 -17.9189,13.03376 -8.5412,4.32504 -14.4653,5.84454 -25.2771,6.48346 -3.0762,0.18178 -7.9079,0.78839 -10.7371,1.34802 -3.8604,0.7636 -7.1834,0.9994 -13.3167,0.94496 -4.495,-0.0399 -8.772,-0.16657 -9.5044,-0.2815 z m 8.4681,-7.30329 c -5.1094,-1.82611 -13.3487,-7.36514 -19.0524,-12.80831 -13.38,-12.76888 -21.9649,-29.7584 -25.726,-50.91219 -1.1206,-6.30258 -0.9456,-26.10116 0.2895,-32.75923 3.2501,-17.52011 10.9177,-33.14886 22.1366,-45.12081 3.4831,-3.71697 12.1239,-11.07592 13.0051,-11.07592 0.1647,0 1.4486,-0.67424 2.8531,-1.4983 1.4045,-0.82407 3.932,-2.06668 5.6165,-2.76137 1.6846,-0.69469 3.0629,-1.48453 3.0629,-1.75519 0,-0.64284 -9.7638,0.027 -14.6485,1.00492 -21.1332,4.23103 -39.5429,19.5071 -49.3684,40.96519 -3.7693,8.23186 -5.0294,11.99794 -6.5055,19.44247 -3.3355,16.82333 -2.2474,32.50999 3.3823,48.75752 7.8005,22.51249 25.7068,40.46116 46.6022,46.71244 6.8804,2.05838 9.0431,2.4075 15.2112,2.45536 4.7423,0.0368 4.9397,-0.004 3.1414,-0.64658 z m 35.7435,-3.25246 c 17.1763,-4.03441 33.6505,-18.64459 42.1677,-37.39655 9.7135,-21.38556 11.0325,-44.28047 3.8302,-66.48413 -1.7844,-5.50116 -6.8761,-16.22373 -9.4853,-19.97514 -10.049,-14.44809 -22.3691,-23.40429 -37.4178,-27.20117 -5.4002,-1.36249 -15.176,-1.60701 -19.9623,-0.49932 -8.6466,2.00108 -18.006,6.38677 -24.7252,11.58588 -22.2945,17.25079 -33.4017,50.90397 -27.0826,82.05677 2.1529,10.61389 7.77,24.06357 13.5989,32.56117 3.0119,4.39102 10.8922,12.40513 15.6082,15.87338 3.2725,2.40666 13.6742,8.05281 15.3797,8.34829 0.3608,0.0625 1.4949,0.39675 2.5203,0.74278 5.2653,1.77679 18.7823,1.98193 25.5682,0.38804 z M 69.600399,818.67338 c -1.32973,-1.5125 -2.88755,-5.0001 -3.50954,-7.8569 -0.59657,-2.74 -0.78857,-5.348 -1.7059,-23.1711 -0.29403,-5.7129 -0.75974,-14.2223 -1.03491,-18.9098 -0.27516,-4.6875 -0.64163,-11.7587 -0.81437,-15.7138 -0.17274,-3.9551 -0.54091,-10.30718 -0.81815,-14.11578 -0.27724,-3.80859 -0.74436,-12.67755 -1.03804,-19.7088 -0.29368,-7.03125 -0.78034,-17.57813 -1.08147,-23.4375 -0.30113,-5.85938 -1.01675,-20.84073 -1.59028,-33.2919 -0.57352,-12.45117 -1.16434,-24.67596 -1.31294,-27.16619 -0.41689,-6.98658 -0.80315,-14.20715 -1.38198,-25.83452 -1.30111,-26.13602 -2.09255,-41.33103 -2.35828,-45.27698 -0.15784,-2.34375 -0.52255,-9.41495 -0.81046,-15.71378 -0.7269,-15.90249 -1.41232,-30.17651 -2.64735,-55.13139 -0.28998,-5.85938 -0.88945,-19.04297 -1.33215,-29.29687 -0.4427,-10.25391 -0.92174,-20.44123 -1.06452,-22.6385 -0.14279,-2.19726 -0.38112,-6.63174 -0.52963,-9.8544 -0.47674,-10.34542 -1.36363,-27.43974 -1.90691,-36.75426 -0.29048,-4.98047 -0.88125,-17.3251 -1.31282,-27.43252 -0.43156,-10.10743 -1.14488,-25.20863 -1.58514,-33.55824 -1.36948,-25.97216 -1.83718,-35.65849 -2.14757,-44.47798 -0.32831,-9.32849 -1.06848,-23.67609 -2.40446,-46.60866 -0.78678,-13.50529 -0.66608,-22.48899 0.34956,-26.01887 0.96648,-3.35897 2.55876,-6.78693 3.81717,-8.21779 2.14874,-2.44321 -1.70846,-2.08729 -7.56673,0.69822 -3.19091,1.51722 -7.94777,6.23921 -9.63048,9.55988 -2.92604,5.77426 -3.14326,7.63812 -2.45251,21.04384 0.34735,6.74105 0.85867,16.81078 1.13629,22.37719 0.27761,5.5664 0.74516,14.79492 1.03901,20.50781 0.7831,15.2251 1.0165,20.19118 1.89012,40.21662 0.43455,9.96093 0.89986,19.549 1.03402,21.30681 0.37278,4.88427 1.16206,20.34174 1.61832,31.69389 0.15897,3.95508 0.40364,8.86896 0.54373,10.91975 0.22944,3.35886 0.68964,13.04188 2.37968,50.07102 0.29417,6.44531 0.76706,16.51278 1.05087,22.37215 0.28381,5.85938 0.7608,16.2864 1.05999,23.17117 0.29918,6.88476 0.66461,14.55521 0.81207,17.04545 0.14745,2.49023 0.50888,9.80113 0.80317,16.24645 0.2943,6.44531 0.64389,12.67755 0.77688,13.84943 0.133,1.17187 0.38678,5.4865 0.56397,9.58807 0.17719,4.10156 0.55002,11.41246 0.8285,16.24644 0.57065,9.90549 1.81965,35.61586 2.62512,54.0373 0.95829,21.91663 2.86603,60.79818 4.53595,92.44707 0.7188,13.62304 1.90029,38.43217 2.62552,55.13137 1.83695,42.2978 2.07386,45.4779 3.64217,48.8903 1.86813,4.0647 6.66839,8.531 11.9462,11.1152 2.40482,1.1774 4.57358,2.0165 4.81946,1.8645 0.24588,-0.1519 0.79517,-0.056 1.22063,0.2131 1.27756,0.8082 1.79312,0.5687 0.91819,-0.4265 z"
       id="path1" />
  </g>
</svg>
